<?xml version="1.0" encoding="UTF-8" standalone="no"?>
<!-- Generator: Adobe Illustrator 19.2.1, SVG Export Plug-In . SVG Version: 6.00 Build 0)  -->
<svg id="Layer_1" style="enable-background:new 0 0 672 341" xmlns="http://www.w3.org/2000/svg" xml:space="preserve" height="341px" viewBox="0 0 672 341" width="672px" version="1.1" y="0px" x="0px" xmlns:xlink="http://www.w3.org/1999/xlink">
<style type="text/css">
	.st0{clip-path:url(#SVGID_2_);}
	.st1{fill:none;stroke:#00A1DF;stroke-width:1.1619;stroke-miterlimit:10;}
	.st2{fill:#00A1DF;}
	.st3{fill:#39AEE4;}
	.st4{fill-rule:evenodd;clip-rule:evenodd;fill:#FFFFFF;}
	.st5{fill:#FFFFFF;}
</style>
	<defs>
		<rect id="SVGID_1_" y=".8" width="672" height="340.2"/>
	</defs>
	<clipPath id="SVGID_2_">
		<use xlink:href="#SVGID_1_"/>
	</clipPath>
	<g class="st0">
		<line y1="237.3" x2="351.9" x1="369.1" y2="251.4" class="st1"/>
		<line y1="111.3" x2="401.2" x1="422" y2="127.2" class="st1"/>
		<line y1="44.1" x2="247.9" x1="267.6" y2="26" class="st1"/>
		<line y1="-7.7" x2="385" x1="385" y2="37.3" class="st1"/>
		<line y1="26.6" x2="471.1" x1="452.3" y2="43.6" class="st1"/>
		<line y1="110.9" x2="503.2" x1="527.2" y2="128" class="st1"/>
		<line y1="190.5" x2="505.3" x1="548" y2="213.1" class="st1"/>
		<line y1="253.8" x2="503.8" x1="529.2" y2="235.5" class="st1"/>
		<line y1="338.5" x2="501.7" x1="518.7" y2="320.6" class="st1"/>
		<line y1="236.5" x2="421.5" x1="400.9" y2="252.3" class="st1"/>
		<line y1="320.8" x2="351.2" x1="371.1" y2="343" class="st1"/>
		<line y1="153.1" x2="249.2" x1="267" y2="168.2" class="st1"/>
		<line y1="71.2" x2="216.3" x1="197.2" y2="86" class="st1"/>
		<line y1="150.4" x2="160.6" x1="133.7" y2="144.8" class="st1"/>
		<line y1="223.3" x2="131.2" x1="160" y2="223.3" class="st1"/>
		<line y1="313" x2="131.7" x1="161.3" y2="319.2" class="st1"/>
		<line y1="319.6" x2="217.7" x1="195.8" y2="337.9" class="st1"/>
				<path class="st2" d="m233.6 331.2c11.2 0 20.3 9.1 20.3 20.3s-9.1 20.3-20.3 20.3-20.3-9.1-20.3-20.3c-0.1-11.2 9-20.3 20.3-20.3m0-1.1c-11.9 0-21.5 9.6-21.5 21.5s9.6 21.5 21.5 21.5 21.5-9.6 21.5-21.5-9.7-21.5-21.5-21.5z"/>
		<path class="st3" d="m238.9 340.4h-10.7c-1.3 0-2.3 1-2.3 2.3v17.7c0 1.3 1 2.3 2.3 2.3h10.7c1.3 0 2.3-1 2.3-2.3v-17.7c0-1.3-1-2.3-2.3-2.3zm1.3 20c0 0.7-0.6 1.3-1.3 1.3h-10.7c-0.7 0-1.3-0.6-1.3-1.3v-2.4h13.3v2.4zm0-15.3h-13.3v-2.4c0-0.7 0.6-1.3 1.3-1.3h10.7c0.7 0 1.3 0.6 1.3 1.3v2.4zm-7.6 14.7c0-0.6 0.4-1 1-1s1 0.4 1 1-0.4 1-1 1-1-0.4-1-1zm-0.8-17h3.5v0.8h-3.5v-0.8z"/>
				<path class="st2" d="m232-8.2c11.2 0 20.3 9.1 20.3 20.3s-9.1 20.3-20.3 20.3-20.3-9.1-20.3-20.3c-0.1-11.2 9-20.3 20.3-20.3m0-1.2c-11.9 0-21.5 9.6-21.5 21.5s9.6 21.5 21.5 21.5 21.5-9.6 21.5-21.5-9.7-21.5-21.5-21.5z"/>
			<path class="st4" d="m224.9 12.7c-0.1 0.1-0.1 0.2-0.1 0.3s0 0.2 0.1 0.2l0.1 0.1s0.2 0.1 0.5 0.1c0.2 0 0.5-0.1 0.5-0.1v-0.8h-0.5c-0.4 0.1-0.6 0.2-0.6 0.2z"/>
			<path class="st4" d="m235.9 11.6c-0.2 0-0.4 0.1-0.5 0.2-0.1 0.2-0.2 0.4-0.2 0.7s0.1 0.5 0.2 0.7 0.3 0.2 0.5 0.2 0.4-0.1 0.5-0.2c0.1-0.2 0.2-0.4 0.2-0.7s-0.1-0.5-0.2-0.7c-0.1-0.1-0.3-0.2-0.5-0.2z"/>
			<path class="st4" d="m229.2 11.6c-0.2 0-0.4 0.1-0.5 0.2s-0.1 0.2-0.1 0.4h1.2c0-0.2 0-0.3-0.1-0.4-0.2-0.1-0.3-0.2-0.5-0.2z"/>
			<path class="st4" d="m240.4 5.8c-0.9 0-1.8 0.2-2.5 0.5-0.9-1.6-2.6-2.6-4.5-2.6-1.4 0-2.7 0.6-3.7 1.6-1-1.3-2.6-2.2-4.5-2.2-3.1 0-5.6 2.5-5.6 5.6 0 0.8 0.2 1.5 0.5 2.2-1.4 0.8-2.4 2.4-2.4 4.2 0 2.7 2.2 4.9 4.8 4.9 0.3 0 0.7 0 1-0.1 0.7 2 2.6 3.4 4.9 3.4 2.2 0 4-1.3 4.8-3.2 0.6 0.3 1.3 0.5 2 0.5 1.7 0 3.2-0.9 4-2.3 0.4 0.1 0.8 0.1 1.2 0.1 3.4 0 6.2-2.8 6.2-6.3 0.1-3.5-2.7-6.3-6.2-6.3zm-16.5 7.3c0 0.5-0.4 0.8-1 0.8-0.3 0-0.6 0-0.9-0.2-0.1 0-0.1-0.1-0.2-0.1v-0.1l0.1-0.3c0-0.1 0.1 0 0.1 0s0.1 0 0.1 0.1c0.3 0.2 0.7 0.2 0.8 0.2 0.3 0 0.4-0.1 0.4-0.3s-0.2-0.3-0.5-0.4h-0.1c-0.4-0.1-0.8-0.3-0.8-0.8s0.4-0.8 0.9-0.8h0.1c0.3 0 0.6 0.1 0.9 0.2v0.1l-0.1 0.3c0 0.1-0.1 0-0.1 0-0.2-0.1-0.5-0.2-0.8-0.2-0.2 0-0.4 0.1-0.4 0.3s0.3 0.3 0.5 0.4h0.1c0.5 0.1 0.9 0.3 0.9 0.8zm2.5 0.6h-0.1c-0.1 0-0.3 0.1-0.4 0.1h-0.5-0.4c-0.1 0-0.2-0.1-0.3-0.1-0.1-0.1-0.2-0.2-0.2-0.3-0.1-0.1-0.1-0.2-0.1-0.4 0-0.1 0-0.3 0.1-0.4s0.1-0.2 0.2-0.3 0.2-0.1 0.4-0.2c0.1 0 0.3-0.1 0.4-0.1h0.3 0.3v-0.1c0-0.2 0-0.3-0.1-0.4s-0.2-0.1-0.4-0.1c0 0-0.4 0-0.7 0.2s0 0-0.1 0l-0.1-0.3v-0.1c0.2-0.1 0.5-0.2 0.5-0.2h0.5c0.3 0 0.6 0.1 0.8 0.2 0.2 0.2 0.3 0.4 0.3 0.7l-0.4 1.8zm1.1 0.1l-0.5 0.1v-0.1-3.6-0.1h0.4v0.1 3.6zm2.8-1.2c0 0.1-0.1 0.1 0 0h-1.7c0 0.3 0.1 0.4 0.2 0.6 0.1 0.1 0.3 0.2 0.6 0.2 0.4 0 0.6-0.1 0.7-0.1h0.1l0.1 0.3v0.1c-0.1 0.1-0.4 0.2-0.8 0.2-0.2 0-0.4 0-0.6-0.1s-0.3-0.2-0.4-0.3-0.2-0.3-0.2-0.4c-0.1-0.2-0.1-0.3-0.1-0.5s0-0.4 0.1-0.5c0-0.2 0.1-0.3 0.2-0.4s0.2-0.2 0.4-0.3 0.3-0.1 0.6-0.1c0.2 0 0.3 0 0.5 0.1 0.1 0 0.2 0.1 0.3 0.2s0.2 0.2 0.2 0.4c-0.2 0.3-0.2 0.6-0.2 0.6zm0.5 1.1c-0.1 0-0.1-0.1-0.2-0.1v-0.1l0.1-0.3c0-0.1 0.1 0 0.1 0s0.1 0 0.1 0.1c0.3 0.2 0.7 0.2 0.8 0.2 0.3 0 0.4-0.1 0.4-0.3s-0.2-0.3-0.5-0.4h-0.1c-0.4-0.1-0.8-0.3-0.8-0.8s0.4-0.8 0.9-0.8h0.1c0.3 0 0.6 0.1 0.9 0.2v0.1l-0.1 0.3c0 0.1-0.1 0-0.1 0-0.2-0.1-0.5-0.2-0.8-0.2-0.2 0-0.4 0.1-0.4 0.3s0.3 0.3 0.5 0.4h0.1c0.4 0.1 0.8 0.3 0.8 0.8s-0.4 0.8-1 0.8c-0.2 0-0.5-0.1-0.8-0.2zm3.8-2.1c0 0.1-0.1 0.1 0 0h-0.6l-0.4 2.1c0 0.2-0.1 0.4-0.1 0.6-0.1 0.2-0.1 0.3-0.2 0.4s-0.2 0.2-0.3 0.2-0.3 0.1-0.4 0.1h-0.2-0.2v-0.1l0.1-0.3h0.1 0.1 0.1 0.2c0.1 0 0.1-0.1 0.2-0.1 0-0.1 0.1-0.1 0.1-0.2s0.1-0.2 0.1-0.4l0.4-2.1h-0.4s-0.1 0-0.1-0.1l0.1-0.3c0-0.1 0.1 0 0.1 0h0.4v-0.1c0.1-0.3 0.2-0.6 0.3-0.8 0.2-0.2 0.4-0.3 0.7-0.3h0.2 0.2v0.1l-0.1 0.4h-0.1-0.1-0.1-0.2c-0.1 0-0.1 0-0.1 0.1 0 0-0.1 0.1-0.1 0.2-0.1 0.2-0.1 0.4-0.1 0.4h0.5s0.1 0 0.1 0.1l-0.2 0.1zm2.4 1.5c0 0.2-0.1 0.3-0.2 0.4s-0.2 0.2-0.4 0.3-0.3 0.1-0.5 0.1-0.4 0-0.5-0.1c-0.2-0.1-0.3-0.2-0.4-0.3s-0.2-0.3-0.2-0.4c0-0.2-0.1-0.3-0.1-0.5s0-0.4 0.1-0.5c0-0.2 0.1-0.3 0.2-0.4s0.2-0.2 0.4-0.3 0.3-0.1 0.5-0.1 0.4 0 0.5 0.1c0.2 0.1 0.3 0.2 0.4 0.3s0.2 0.3 0.2 0.4c0 0.2 0.1 0.3 0.1 0.5 0 0.1 0 0.3-0.1 0.5zm2.1-1.8s-0.1 0.3-0.1 0.4h-0.1-0.2-0.2c-0.1 0-0.1 0.1-0.2 0.1-0.1 0.1-0.1 0.1-0.1 0.2s-0.1 0.3-0.1 0.4v1.3s0 0.1-0.1 0.1h-0.4s-0.1 0-0.1-0.1v-2.5-0.1h0.4v0.1 0.2c0.1-0.1 0.2-0.2 0.3-0.2s0.2-0.1 0.4-0.1c0.3 0.1 0.5 0.1 0.5 0.2v0zm2.1 2.5c-0.2 0.1-0.4 0.1-0.7 0.1-0.4 0-0.8-0.1-1-0.4-0.2-0.2-0.3-0.6-0.3-1 0-0.2 0-0.4 0.1-0.5 0.1-0.2 0.1-0.3 0.2-0.4s0.2-0.2 0.4-0.3 0.3-0.1 0.6-0.1h0.4c0.1 0 0.3 0.1 0.3 0.1v0.1c0 0.1-0.1 0.2-0.1 0.3s-0.1 0-0.1 0c-0.2-0.1-0.3-0.1-0.5-0.1s-0.4 0.1-0.6 0.2c-0.1 0.2-0.2 0.4-0.2 0.7s0.1 0.5 0.2 0.7c0.1 0.1 0.3 0.2 0.6 0.2h0.3c0.1 0 0.2 0 0.2-0.1h0.1l0.1 0.5c0.1-0.1 0 0 0 0zm2.5-1.2v0h-1.7c0 0.3 0.1 0.4 0.2 0.6 0.1 0.1 0.3 0.2 0.6 0.2 0.4 0 0.6-0.1 0.7-0.1h0.1l0.1 0.3v0.1c-0.1 0.1-0.4 0.2-0.8 0.2-0.2 0-0.4 0-0.6-0.1s-0.3-0.2-0.4-0.3-0.2-0.3-0.2-0.4c-0.1-0.2-0.1-0.3-0.1-0.5s0-0.4 0.1-0.5c0-0.2 0.1-0.3 0.2-0.4s0.2-0.2 0.4-0.3 0.3-0.1 0.6-0.1c0.2 0 0.3 0 0.5 0.1 0.1 0 0.2 0.1 0.3 0.2s0.2 0.2 0.2 0.4l-0.2 0.6z"/>
			<path class="st4" d="m242.6 11.6c-0.2 0-0.4 0.1-0.5 0.2s-0.1 0.2-0.1 0.4h1.2c0-0.2 0-0.3-0.1-0.4s-0.3-0.2-0.5-0.2z"/>
				<path class="st2" d="m566.7 159.6c11.2 0 20.3 9.1 20.3 20.3s-9.1 20.3-20.3 20.3c-11.2 0-20.3-9.1-20.3-20.3s9.1-20.3 20.3-20.3m0-1.2c-11.9 0-21.5 9.6-21.5 21.5s9.6 21.5 21.5 21.5 21.5-9.6 21.5-21.5-9.6-21.5-21.5-21.5z"/>
		<path class="st3" d="m577.5 171.6v-1.1h-6.4c0-1.4-1.2-2.6-2.7-2.6h-3.4c-1.5 0-2.6 1.2-2.7 2.6h-6.4v1.1h6.4v1.3c-1.2 0.4-2.2 1.5-2.2 2.9v8.1c0 1.4 0.9 2.5 2.2 2.9v1.5h-6.4v1.1h6.4c0.1 1.4 1.3 2.4 2.7 2.4h3.4c1.4 0 2.5-1.1 2.7-2.4h6.4v-1.1h-6.4v-1.5c1.2-0.4 2.2-1.5 2.2-2.9v-4.7h0.1c0.4 0 0.7-0.3 0.7-0.7v-1.7c0-0.4-0.3-0.7-0.7-0.7h-0.1v-0.3c0-1.4-0.9-2.5-2.2-2.9v-1.3h6.4zm-14.1-0.9c0-0.9 0.7-1.6 1.6-1.6h3.4c0.9 0 1.6 0.7 1.6 1.6v2.1h-6.6v-2.1zm6.6 18.5c0 0.9-0.7 1.6-1.6 1.6h-3.4c-0.9 0-1.6-0.7-1.6-1.6v-2.1h6.6v2.1zm2.2-13.4v8.1c0 1.1-0.9 2-2 2h-6.9c-1.1 0-2-0.9-2-2v-8.1c0-1.1 0.9-2 2-2h6.9c1.1 0 2 0.9 2 2zm-9.2 0.4h3.3v3.3h-3.3v-3.3zm4.2 0h3.3v3.3h-3.3v-3.3zm-4.2 4.1h3.3v3.3h-3.3v-3.3zm4.2 0h3.3v3.3h-3.3v-3.3z"/>
				<path class="st2" d="m336.9 338.5c11.2 0 20.3 9.1 20.3 20.3s-9.1 20.3-20.3 20.3-20.3-9.1-20.3-20.3 9.1-20.3 20.3-20.3m0-1.1c-11.9 0-21.5 9.6-21.5 21.5s9.6 21.5 21.5 21.5 21.5-9.6 21.5-21.5-9.7-21.5-21.5-21.5z"/>
				<path class="st2" d="m436.7 245.8c11.2 0 20.3 9.1 20.3 20.3s-9.1 20.3-20.3 20.3-20.3-9.1-20.3-20.3 9.1-20.3 20.3-20.3m0-1.1c-11.9 0-21.5 9.6-21.5 21.5s9.6 21.5 21.5 21.5 21.5-9.6 21.5-21.5c0-11.9-9.7-21.5-21.5-21.5z"/>
					<path class="st5" d="m437.6 263.5c-1.7 0-3.2 1-4 2.4-0.8-1.4-2.3-2.4-4-2.4-1 0-2 0.3-2.7 0.9v-3.8c0-0.5-0.4-0.9-0.9-0.9s-0.9 0.4-0.9 0.9v7.5c0 2.5 2.1 4.5 4.5 4.5 1.7 0 3.2-1 4-2.4 0.8 1.4 2.3 2.4 4 2.4 2.5 0 4.5-2 4.5-4.5s-2-4.6-4.5-4.6zm-8 7.3c-1.5 0-2.7-1.2-2.7-2.7s1.2-2.7 2.7-2.7 2.7 1.2 2.7 2.7-1.2 2.7-2.7 2.7zm8 0c-1.5 0-2.7-1.2-2.7-2.7s1.2-2.7 2.7-2.7 2.7 1.2 2.7 2.7-1.2 2.7-2.7 2.7z"/>
					<path class="st5" d="m448.2 271.2l-2.3-3.1 2.3-3.1c0.3-0.4 0.2-1-0.2-1.3s-1-0.2-1.3 0.2l-2 2.7-2-2.7c-0.3-0.4-0.9-0.5-1.3-0.2s-0.5 0.9-0.2 1.3l2.3 3.1-2.3 3.1c-0.3 0.4-0.2 1 0.2 1.3s1 0.2 1.3-0.2l2-2.7 2 2.7c0.3 0.4 0.9 0.5 1.3 0.2 0.4-0.4 0.5-0.9 0.2-1.3z"/>
				<path class="st2" d="m544.3 78.4c11.2 0 20.3 9.1 20.3 20.3s-9.1 20.3-20.3 20.3c-11.2 0-20.3-9.1-20.3-20.3s9.1-20.3 20.3-20.3m0-1.2c-11.9 0-21.5 9.6-21.5 21.5s9.6 21.5 21.5 21.5 21.5-9.6 21.5-21.5-9.6-21.5-21.5-21.5z"/>
			<path class="st5" d="m555.2 92c-0.8 0.4-1.7 0.6-2.6 0.7 0.9-0.6 1.6-1.4 2-2.5-0.9 0.5-1.8 0.9-2.8 1.1-0.8-0.9-2-1.4-3.3-1.4-2.5 0-4.5 2-4.5 4.5 0 0.3 0 0.7 0.1 1-3.7-0.2-7-2-9.2-4.7-0.4 0.7-0.6 1.4-0.6 2.2 0 1.5 0.8 2.9 2 3.7-0.7 0-1.4-0.2-2-0.6v0.1c0 2.2 1.5 4 3.6 4.4-0.4 0.1-0.8 0.2-1.2 0.2-0.3 0-0.6 0-0.8-0.1 0.6 1.8 2.2 3.1 4.2 3.1-1.5 1.2-3.4 1.9-5.5 1.9-0.4 0-0.7 0-1.1-0.1 2 1.3 4.3 2 6.8 2 8.2 0 12.7-6.8 12.7-12.7v-0.6c0.8-0.5 1.6-1.3 2.2-2.2z"/>
		<line y1="57.9" x2="261.7" x1="201.2" y2="57.9" class="st1"/>
		<line y1="57.9" x2="363.6" x1="303.1" y2="57.9" class="st1"/>
		<line y1="57.9" x2="466.3" x1="405.8" y2="57.9" class="st1"/>
		<line y1="140.6" x2="466.3" x1="405" y2="140.6" class="st1"/>
		<line y1="140.6" x2="364.8" x1="303.5" y2="140.6" class="st1"/>
		<line y1="140.6" x2="262.9" x1="201.7" y2="140.6" class="st1"/>
		<line y1="223.3" x2="466.3" x1="405.6" y2="223.3" class="st1"/>
		<line y1="223.3" x2="364.3" x1="303.7" y2="223.3" class="st1"/>
		<line y1="223.3" x2="262" x1="201.4" y2="223.3" class="st1"/>
		<line y1="305.9" x2="262.5" x1="202.1" y2="305.9" class="st1"/>
		<line y1="305.9" x2="364.3" x1="304" y2="305.9" class="st1"/>
		<line y1="305.9" x2="466" x1="405.6" y2="305.9" class="st1"/>
		<line y1="244" x2="180.9" x1="180.9" y2="285.3" class="st1"/>
		<line y1="160.9" x2="180.9" x1="180.9" y2="202.3" class="st1"/>
		<line y1="78.3" x2="180.9" x1="180.9" y2="119.6" class="st1"/>
		<line y1="244" x2="282.8" x1="282.8" y2="285.3" class="st1"/>
		<line y1="160.8" x2="282.8" x1="282.8" y2="202.1" class="st1"/>
		<line y1="78.3" x2="282.8" x1="282.8" y2="119.6" class="st1"/>
		<line y1="78.4" x2="384.7" x1="384.7" y2="119.4" class="st1"/>
		<line y1="244" x2="487.7" x1="487.7" y2="285.4" class="st1"/>
		<line y1="160.7" x2="487.7" x1="487.7" y2="202.1" class="st1"/>
		<line y1="78" x2="487.7" x1="487.7" y2="119.4" class="st1"/>
			<path class="st5" d="m282.8 126.8c-7.5 0-13.6 6.1-13.6 13.5 0 7.5 6.1 13.5 13.6 13.5s13.6-6.1 13.6-13.5-6.1-13.5-13.6-13.5zm0 26c-6.8 0-12.4-5.5-12.4-12.4 0-6.8 5.5-12.4 12.4-12.4 6.8 0 12.4 5.5 12.4 12.4 0 6.8-5.6 12.4-12.4 12.4z"/>
			<path class="st5" d="m279.4 146.4c-2-1-3.5-3.1-3.5-5.7 0-1.3 0.4-2.6 1.1-3.6l4.5 6.7h2.7l4.5-6.7c0.7 1 1.1 2.2 1.1 3.6 0 2.4-1.2 4.4-3.1 5.4l0.9 3.3c3.3-1.7 5.5-5.1 5.5-9 0-3.7-2-7-5-8.7l-5.2 8-5.1-8c-3 1.8-5 5-5 8.8 0 4.1 2.4 7.6 5.9 9.2l0.7-3.3z"/>
			<path class="st5" d="m180.9 126.8c-7.5 0-13.6 6.1-13.6 13.5 0 7.5 6.1 13.5 13.6 13.5s13.6-6.1 13.6-13.5-6.1-13.5-13.6-13.5zm0 26c-6.8 0-12.4-5.5-12.4-12.4 0-6.8 5.5-12.4 12.4-12.4 6.8 0 12.4 5.5 12.4 12.4 0 6.8-5.5 12.4-12.4 12.4z"/>
			<path class="st5" d="m177.5 146.4c-2-1-3.5-3.1-3.5-5.7 0-1.3 0.4-2.6 1.1-3.6l4.5 6.7h2.7l4.5-6.7c0.7 1 1.1 2.2 1.1 3.6 0 2.4-1.2 4.4-3.1 5.4l0.9 3.3c3.3-1.7 5.5-5.1 5.5-9 0-3.7-2-7-5-8.7l-5.2 8-5.1-8c-3 1.8-5 5-5 8.8 0 4.1 2.4 7.6 5.9 9.2l0.7-3.3z"/>
			<path class="st5" d="m384.7 126.8c-7.5 0-13.6 6.1-13.6 13.5 0 7.5 6.1 13.5 13.6 13.5s13.6-6.1 13.6-13.5-6.1-13.5-13.6-13.5zm0 26c-6.8 0-12.4-5.5-12.4-12.4 0-6.8 5.5-12.4 12.4-12.4 6.8 0 12.4 5.5 12.4 12.4 0 6.8-5.6 12.4-12.4 12.4z"/>
			<path class="st5" d="m381.3 146.4c-2-1-3.5-3.1-3.5-5.7 0-1.3 0.4-2.6 1.1-3.6l4.5 6.7h2.7l4.5-6.7c0.7 1 1.1 2.2 1.1 3.6 0 2.4-1.2 4.4-3.1 5.4l0.9 3.3c3.3-1.7 5.5-5.1 5.5-9 0-3.7-2-7-5-8.7l-5.2 8-5.1-8c-3 1.8-5 5-5 8.8 0 4.1 2.4 7.6 5.9 9.2l0.7-3.3z"/>
			<path class="st5" d="m486.6 126.8c-7.5 0-13.6 6.1-13.6 13.5 0 7.5 6.1 13.5 13.6 13.5s13.6-6.1 13.6-13.5-6.1-13.5-13.6-13.5zm0 26c-6.8 0-12.4-5.5-12.4-12.4 0-6.8 5.5-12.4 12.4-12.4 6.8 0 12.4 5.5 12.4 12.4 0 6.8-5.6 12.4-12.4 12.4z"/>
			<path class="st5" d="m483.1 146.4c-2-1-3.5-3.1-3.5-5.7 0-1.3 0.4-2.6 1.1-3.6l4.5 6.7h2.7l4.5-6.7c0.7 1 1.1 2.2 1.1 3.6 0 2.4-1.2 4.4-3.1 5.4l0.9 3.3c3.3-1.7 5.5-5.1 5.5-9 0-3.7-2-7-5-8.7l-5.2 8-5.1-8c-3 1.8-5 5-5 8.8 0 4.1 2.4 7.6 5.9 9.2l0.7-3.3z"/>
			<path class="st5" d="m282.8 44.1c-7.5 0-13.6 6.1-13.6 13.5 0 7.5 6.1 13.5 13.6 13.5s13.6-6.1 13.6-13.5-6.1-13.5-13.6-13.5zm0 26c-6.8 0-12.4-5.5-12.4-12.4 0-6.8 5.5-12.4 12.4-12.4 6.8 0 12.4 5.5 12.4 12.4s-5.6 12.4-12.4 12.4z"/>
			<path class="st5" d="m279.4 63.7c-2-1-3.5-3.1-3.5-5.7 0-1.3 0.4-2.6 1.1-3.6l4.5 6.7h2.7l4.5-6.7c0.7 1 1.1 2.2 1.1 3.6 0 2.4-1.2 4.4-3.1 5.4l0.9 3.3c3.3-1.7 5.5-5.1 5.5-9 0-3.7-2-7-5-8.7l-5.2 8-5.1-8c-3 1.8-5 5-5 8.8 0 4.1 2.4 7.6 5.9 9.2l0.7-3.3z"/>
			<path class="st5" d="m180.9 44.1c-7.5 0-13.6 6.1-13.6 13.5 0 7.5 6.1 13.5 13.6 13.5s13.6-6.1 13.6-13.5-6.1-13.5-13.6-13.5zm0 26c-6.8 0-12.4-5.5-12.4-12.4 0-6.8 5.5-12.4 12.4-12.4 6.8 0 12.4 5.5 12.4 12.4s-5.5 12.4-12.4 12.4z"/>
			<path class="st5" d="m177.5 63.7c-2-1-3.5-3.1-3.5-5.7 0-1.3 0.4-2.6 1.1-3.6l4.5 6.7h2.7l4.5-6.7c0.7 1 1.1 2.2 1.1 3.6 0 2.4-1.2 4.4-3.1 5.4l0.9 3.3c3.3-1.7 5.5-5.1 5.5-9 0-3.7-2-7-5-8.7l-5.2 8-5.1-8c-3 1.8-5 5-5 8.8 0 4.1 2.4 7.6 5.9 9.2l0.7-3.3z"/>
			<path class="st5" d="m384.7 44.1c-7.5 0-13.6 6.1-13.6 13.5 0 7.5 6.1 13.5 13.6 13.5s13.6-6.1 13.6-13.5-6.1-13.5-13.6-13.5zm0 26c-6.8 0-12.4-5.5-12.4-12.4 0-6.8 5.5-12.4 12.4-12.4 6.8 0 12.4 5.5 12.4 12.4s-5.6 12.4-12.4 12.4z"/>
			<path class="st5" d="m381.3 63.7c-2-1-3.5-3.1-3.5-5.7 0-1.3 0.4-2.6 1.1-3.6l4.5 6.7h2.7l4.5-6.7c0.7 1 1.1 2.2 1.1 3.6 0 2.4-1.2 4.4-3.1 5.4l0.9 3.3c3.3-1.7 5.5-5.1 5.5-9 0-3.7-2-7-5-8.7l-5.2 8-5.1-8c-3 1.8-5 5-5 8.8 0 4.1 2.4 7.6 5.9 9.2l0.7-3.3z"/>
			<path class="st5" d="m486.6 44.1c-7.5 0-13.6 6.1-13.6 13.5 0 7.5 6.1 13.5 13.6 13.5s13.6-6.1 13.6-13.5-6.1-13.5-13.6-13.5zm0 26c-6.8 0-12.4-5.5-12.4-12.4 0-6.8 5.5-12.4 12.4-12.4 6.8 0 12.4 5.5 12.4 12.4s-5.6 12.4-12.4 12.4z"/>
			<path class="st5" d="m483.1 63.7c-2-1-3.5-3.1-3.5-5.7 0-1.3 0.4-2.6 1.1-3.6l4.5 6.7h2.7l4.5-6.7c0.7 1 1.1 2.2 1.1 3.6 0 2.4-1.2 4.4-3.1 5.4l0.9 3.3c3.3-1.7 5.5-5.1 5.5-9 0-3.7-2-7-5-8.7l-5.2 8-5.1-8c-3 1.8-5 5-5 8.8 0 4.1 2.4 7.6 5.9 9.2l0.7-3.3z"/>
			<path class="st5" d="m282.8 209.5c-7.5 0-13.6 6.1-13.6 13.5 0 7.5 6.1 13.5 13.6 13.5s13.6-6.1 13.6-13.5c0-7.5-6.1-13.5-13.6-13.5zm0 26c-6.8 0-12.4-5.5-12.4-12.4 0-6.8 5.5-12.4 12.4-12.4 6.8 0 12.4 5.5 12.4 12.4 0 6.8-5.6 12.4-12.4 12.4z"/>
			<path class="st5" d="m279.4 229.1c-2-1-3.5-3.1-3.5-5.7 0-1.3 0.4-2.6 1.1-3.6l4.5 6.7h2.7l4.5-6.7c0.7 1 1.1 2.2 1.1 3.6 0 2.4-1.2 4.4-3.1 5.4l0.9 3.3c3.3-1.7 5.5-5.1 5.5-9 0-3.7-2-7-5-8.7l-5.2 8-5.1-8c-3 1.8-5 5-5 8.8 0 4.1 2.4 7.6 5.9 9.2l0.7-3.3z"/>
			<path class="st5" d="m180.9 209.5c-7.5 0-13.6 6.1-13.6 13.5 0 7.5 6.1 13.5 13.6 13.5s13.6-6.1 13.6-13.5c0-7.5-6.1-13.5-13.6-13.5zm0 26c-6.8 0-12.4-5.5-12.4-12.4 0-6.8 5.5-12.4 12.4-12.4 6.8 0 12.4 5.5 12.4 12.4 0 6.8-5.5 12.4-12.4 12.4z"/>
			<path class="st5" d="m177.5 229.1c-2-1-3.5-3.1-3.5-5.7 0-1.3 0.4-2.6 1.1-3.6l4.5 6.7h2.7l4.5-6.7c0.7 1 1.1 2.2 1.1 3.6 0 2.4-1.2 4.4-3.1 5.4l0.9 3.3c3.3-1.7 5.5-5.1 5.5-9 0-3.7-2-7-5-8.7l-5.2 8-5.1-8c-3 1.8-5 5-5 8.8 0 4.1 2.4 7.6 5.9 9.2l0.7-3.3z"/>
			<path class="st5" d="m384.7 209.5c-7.5 0-13.6 6.1-13.6 13.5 0 7.5 6.1 13.5 13.6 13.5s13.6-6.1 13.6-13.5c0-7.5-6.1-13.5-13.6-13.5zm0 26c-6.8 0-12.4-5.5-12.4-12.4 0-6.8 5.5-12.4 12.4-12.4 6.8 0 12.4 5.5 12.4 12.4 0 6.8-5.6 12.4-12.4 12.4z"/>
			<path class="st5" d="m381.3 229.1c-2-1-3.5-3.1-3.5-5.7 0-1.3 0.4-2.6 1.1-3.6l4.5 6.7h2.7l4.5-6.7c0.7 1 1.1 2.2 1.1 3.6 0 2.4-1.2 4.4-3.1 5.4l0.9 3.3c3.3-1.7 5.5-5.1 5.5-9 0-3.7-2-7-5-8.7l-5.2 8-5.1-8c-3 1.8-5 5-5 8.8 0 4.1 2.4 7.6 5.9 9.2l0.7-3.3z"/>
			<path class="st5" d="m486.6 209.5c-7.5 0-13.6 6.1-13.6 13.5 0 7.5 6.1 13.5 13.6 13.5s13.6-6.1 13.6-13.5c0-7.5-6.1-13.5-13.6-13.5zm0 26c-6.8 0-12.4-5.5-12.4-12.4 0-6.8 5.5-12.4 12.4-12.4 6.8 0 12.4 5.5 12.4 12.4 0 6.8-5.6 12.4-12.4 12.4z"/>
			<path class="st5" d="m483.1 229.1c-2-1-3.5-3.1-3.5-5.7 0-1.3 0.4-2.6 1.1-3.6l4.5 6.7h2.7l4.5-6.7c0.7 1 1.1 2.2 1.1 3.6 0 2.4-1.2 4.4-3.1 5.4l0.9 3.3c3.3-1.7 5.5-5.1 5.5-9 0-3.7-2-7-5-8.7l-5.2 8-5.1-8c-3 1.8-5 5-5 8.8 0 4.1 2.4 7.6 5.9 9.2l0.7-3.3z"/>
			<path class="st5" d="m282.8 292.1c-7.5 0-13.6 6.1-13.6 13.5 0 7.5 6.1 13.5 13.6 13.5s13.6-6.1 13.6-13.5-6.1-13.5-13.6-13.5zm0 26c-6.8 0-12.4-5.5-12.4-12.4 0-6.8 5.5-12.4 12.4-12.4 6.8 0 12.4 5.5 12.4 12.4s-5.6 12.4-12.4 12.4z"/>
			<path class="st5" d="m279.4 311.7c-2-1-3.5-3.1-3.5-5.7 0-1.3 0.4-2.6 1.1-3.6l4.5 6.7h2.7l4.5-6.7c0.7 1 1.1 2.2 1.1 3.6 0 2.4-1.2 4.4-3.1 5.4l0.9 3.3c3.3-1.7 5.5-5.1 5.5-9 0-3.7-2-7-5-8.7l-5.2 8-5.1-8c-3 1.8-5 5-5 8.8 0 4.1 2.4 7.6 5.9 9.2l0.7-3.3z"/>
			<path class="st5" d="m180.9 292.1c-7.5 0-13.6 6.1-13.6 13.5 0 7.5 6.1 13.5 13.6 13.5s13.6-6.1 13.6-13.5-6.1-13.5-13.6-13.5zm0 26c-6.8 0-12.4-5.5-12.4-12.4 0-6.8 5.5-12.4 12.4-12.4 6.8 0 12.4 5.5 12.4 12.4s-5.5 12.4-12.4 12.4z"/>
			<path class="st5" d="m177.5 311.7c-2-1-3.5-3.1-3.5-5.7 0-1.3 0.4-2.6 1.1-3.6l4.5 6.7h2.7l4.5-6.7c0.7 1 1.1 2.2 1.1 3.6 0 2.4-1.2 4.4-3.1 5.4l0.9 3.3c3.3-1.7 5.5-5.1 5.5-9 0-3.7-2-7-5-8.7l-5.2 8-5.1-8c-3 1.8-5 5-5 8.8 0 4.1 2.4 7.6 5.9 9.2l0.7-3.3z"/>
			<path class="st5" d="m384.7 292.1c-7.5 0-13.6 6.1-13.6 13.5 0 7.5 6.1 13.5 13.6 13.5s13.6-6.1 13.6-13.5-6.1-13.5-13.6-13.5zm0 26c-6.8 0-12.4-5.5-12.4-12.4 0-6.8 5.5-12.4 12.4-12.4 6.8 0 12.4 5.5 12.4 12.4s-5.6 12.4-12.4 12.4z"/>
			<path class="st5" d="m381.3 311.7c-2-1-3.5-3.1-3.5-5.7 0-1.3 0.4-2.6 1.1-3.6l4.5 6.7h2.7l4.5-6.7c0.7 1 1.1 2.2 1.1 3.6 0 2.4-1.2 4.4-3.1 5.4l0.9 3.3c3.3-1.7 5.5-5.1 5.5-9 0-3.7-2-7-5-8.7l-5.2 8-5.1-8c-3 1.8-5 5-5 8.8 0 4.1 2.4 7.6 5.9 9.2l0.7-3.3z"/>
						<path class="st2" d="m282.8 120c11.2 0 20.3 9.1 20.3 20.3s-9.1 20.3-20.3 20.3c-11.2 0-20.3-9.1-20.3-20.3s9.1-20.3 20.3-20.3m0-0.9c-11.7 0-21.2 9.5-21.2 21.2s9.5 21.2 21.2 21.2 21.2-9.5 21.2-21.2-9.5-21.2-21.2-21.2z"/>
					<path class="st2" d="m180.9 120c11.2 0 20.3 9.1 20.3 20.3s-9.1 20.3-20.3 20.3-20.3-9.1-20.3-20.3 9.1-20.3 20.3-20.3m0-0.9c-11.7 0-21.2 9.5-21.2 21.2s9.5 21.2 21.2 21.2 21.2-9.5 21.2-21.2-9.5-21.2-21.2-21.2z"/>
					<path class="st2" d="m384.7 120c11.2 0 20.3 9.1 20.3 20.3s-9.1 20.3-20.3 20.3c-11.2 0-20.3-9.1-20.3-20.3s9.1-20.3 20.3-20.3m0-0.9c-11.7 0-21.2 9.5-21.2 21.2s9.5 21.2 21.2 21.2 21.2-9.5 21.2-21.2-9.5-21.2-21.2-21.2z"/>
					<path class="st2" d="m486.6 120c11.2 0 20.3 9.1 20.3 20.3s-9.1 20.3-20.3 20.3c-11.2 0-20.3-9.1-20.3-20.3s9.1-20.3 20.3-20.3m0-0.9c-11.7 0-21.2 9.5-21.2 21.2s9.5 21.2 21.2 21.2 21.2-9.5 21.2-21.2-9.5-21.2-21.2-21.2z"/>
					<path class="st2" d="m282.8 37.3c11.2 0 20.3 9.1 20.3 20.3s-9.1 20.3-20.3 20.3-20.3-9.1-20.3-20.3 9.1-20.3 20.3-20.3m0-0.9c-11.7 0-21.2 9.5-21.2 21.2s9.5 21.2 21.2 21.2 21.2-9.5 21.2-21.2-9.5-21.2-21.2-21.2z"/>
					<path class="st2" d="m180.9 37.3c11.2 0 20.3 9.1 20.3 20.3s-9.1 20.3-20.3 20.3-20.3-9.1-20.3-20.3c0-11.2 9.1-20.3 20.3-20.3m0-0.9c-11.7 0-21.2 9.5-21.2 21.2s9.5 21.2 21.2 21.2 21.2-9.5 21.2-21.2-9.5-21.2-21.2-21.2z"/>
					<path class="st2" d="m384.7 37.3c11.2 0 20.3 9.1 20.3 20.3s-9.1 20.3-20.3 20.3-20.3-9.1-20.3-20.3 9.1-20.3 20.3-20.3m0-0.9c-11.7 0-21.2 9.5-21.2 21.2s9.5 21.2 21.2 21.2 21.2-9.5 21.2-21.2-9.5-21.2-21.2-21.2z"/>
					<path class="st2" d="m486.6 37.3c11.2 0 20.3 9.1 20.3 20.3s-9.1 20.3-20.3 20.3-20.3-9.1-20.3-20.3 9.1-20.3 20.3-20.3m0-0.9c-11.7 0-21.2 9.5-21.2 21.2s9.5 21.2 21.2 21.2 21.2-9.5 21.2-21.2-9.5-21.2-21.2-21.2z"/>
					<path class="st2" d="m282.8 202.7c11.2 0 20.3 9.1 20.3 20.3s-9.1 20.3-20.3 20.3-20.3-9.1-20.3-20.3 9.1-20.3 20.3-20.3m0-0.9c-11.7 0-21.2 9.5-21.2 21.2s9.5 21.2 21.2 21.2 21.2-9.5 21.2-21.2c0-11.7-9.5-21.2-21.2-21.2z"/>
					<path class="st2" d="m180.9 202.7c11.2 0 20.3 9.1 20.3 20.3s-9.1 20.3-20.3 20.3-20.3-9.1-20.3-20.3c0-11.2 9.1-20.3 20.3-20.3m0-0.9c-11.7 0-21.2 9.5-21.2 21.2s9.5 21.2 21.2 21.2 21.2-9.5 21.2-21.2c0-11.7-9.5-21.2-21.2-21.2z"/>
					<path class="st2" d="m384.7 202.7c11.2 0 20.3 9.1 20.3 20.3s-9.1 20.3-20.3 20.3-20.3-9.1-20.3-20.3 9.1-20.3 20.3-20.3m0-0.9c-11.7 0-21.2 9.5-21.2 21.2s9.5 21.2 21.2 21.2 21.2-9.5 21.2-21.2c0-11.7-9.5-21.2-21.2-21.2z"/>
					<path class="st2" d="m486.6 202.7c11.2 0 20.3 9.1 20.3 20.3s-9.1 20.3-20.3 20.3-20.3-9.1-20.3-20.3 9.1-20.3 20.3-20.3m0-0.9c-11.7 0-21.2 9.5-21.2 21.2s9.5 21.2 21.2 21.2 21.2-9.5 21.2-21.2c0-11.7-9.5-21.2-21.2-21.2z"/>
					<path class="st2" d="m282.8 285.3c11.2 0 20.3 9.1 20.3 20.3s-9.1 20.3-20.3 20.3-20.3-9.1-20.3-20.3 9.1-20.3 20.3-20.3m0-0.8c-11.7 0-21.2 9.5-21.2 21.2s9.5 21.2 21.2 21.2 21.2-9.5 21.2-21.2-9.5-21.2-21.2-21.2z"/>
					<path class="st2" d="m180.9 285.3c11.2 0 20.3 9.1 20.3 20.3s-9.1 20.3-20.3 20.3-20.3-9.1-20.3-20.3c0-11.2 9.1-20.3 20.3-20.3m0-0.8c-11.7 0-21.2 9.5-21.2 21.2s9.5 21.2 21.2 21.2 21.2-9.5 21.2-21.2-9.5-21.2-21.2-21.2z"/>
					<path class="st2" d="m384.7 285.3c11.2 0 20.3 9.1 20.3 20.3s-9.1 20.3-20.3 20.3-20.3-9.1-20.3-20.3 9.1-20.3 20.3-20.3m0-0.8c-11.7 0-21.2 9.5-21.2 21.2s9.5 21.2 21.2 21.2 21.2-9.5 21.2-21.2-9.5-21.2-21.2-21.2z"/>
					<path class="st2" d="m486.6 285.3c11.2 0 20.3 9.1 20.3 20.3s-9.1 20.3-20.3 20.3-20.3-9.1-20.3-20.3 9.1-20.3 20.3-20.3m0-0.8c-11.7 0-21.2 9.5-21.2 21.2s9.5 21.2 21.2 21.2 21.2-9.5 21.2-21.2-9.5-21.2-21.2-21.2z"/>
			<path class="st5" d="m486.6 292.1c-7.5 0-13.6 6.1-13.6 13.5 0 7.5 6.1 13.5 13.6 13.5s13.6-6.1 13.6-13.5-6.1-13.5-13.6-13.5zm0 26c-6.8 0-12.4-5.5-12.4-12.4 0-6.8 5.5-12.4 12.4-12.4 6.8 0 12.4 5.5 12.4 12.4s-5.6 12.4-12.4 12.4z"/>
			<path class="st5" d="m483.1 311.7c-2-1-3.5-3.1-3.5-5.7 0-1.3 0.4-2.6 1.1-3.6l4.5 6.7h2.7l4.5-6.7c0.7 1 1.1 2.2 1.1 3.6 0 2.4-1.2 4.4-3.1 5.4l0.9 3.3c3.3-1.7 5.5-5.1 5.5-9 0-3.7-2-7-5-8.7l-5.2 8-5.1-8c-3 1.8-5 5-5 8.8 0 4.1 2.4 7.6 5.9 9.2l0.7-3.3z"/>
				<path class="st2" d="m439.1 78.4c11.2 0 20.3 9.1 20.3 20.3s-9.1 20.3-20.3 20.3c-11.2 0-20.3-9.1-20.3-20.3s9-20.3 20.3-20.3m0-1.2c-11.9 0-21.5 9.6-21.5 21.5s9.6 21.5 21.5 21.5 21.5-9.6 21.5-21.5-9.7-21.5-21.5-21.5z"/>
		<path class="st3" d="m445.3 93.5h-12.5l1.2-2.8c0.1-0.2 0.2-0.3 0.4-0.3 4-0.4 8-0.1 9.1 0 0.2 0 0.4 0.1 0.4 0.3l1.4 2.8zm1.4 1.9l-3.6 0.5 0.9 0.9h1.8l0.4 0.4 1-0.1c0.1-0.1 0.6-1.1-0.5-1.7zm-0.1 3c-0.4 0-0.7 0.3-0.7 0.7s0.3 0.7 0.7 0.7 0.7-0.3 0.7-0.7c0-0.3-0.3-0.7-0.7-0.7zm-15.2-3c-1 0.6-0.5 1.6-0.5 1.6l1 0.1 0.4-0.4h1.9l0.9-0.9-3.7-0.4zm0 3c-0.4 0-0.7 0.3-0.7 0.7s0.3 0.7 0.7 0.7 0.7-0.3 0.7-0.7c0.1-0.3-0.3-0.7-0.7-0.7zm10.5 0.2h-5.7c-0.7 0-1.3 0.6-1.3 1.3v1.1h8.2v-1.1c0.1-0.8-0.5-1.3-1.2-1.3zm7.3 2.7l-0.1 0.2-0.1 0.1v4.4c0 0.6-0.5 1.1-1.1 1.1h-2.1c-0.6 0-1.1-0.5-1.1-1.1v-1.4h-1.2v0.3h-3.1v-0.3h-2.6v0.3h-3.1v-0.3h-1.2v1.4c0 0.6-0.5 1.1-1.1 1.1h-2.1c-0.6 0-1.1-0.5-1.1-1.1v-4.4l-0.1-0.1-0.1-0.1v-0.1c-1.1-3.9 0.3-6.1 0.4-6.2l0.1-0.2h0.3l1.2-1.2c-0.4 0-1.3 0-1.4-0.1s-0.6-0.6 0-1.2c0 0 1.9-0.7 1.5 0.4l-0.1 0.3h0.3v-0.1c0.5-1.6 1.1-2.7 1.6-3.3 0.2-0.3 0.5-0.5 0.7-0.6h0.1s0.2 0 0.6-0.1l0.2-0.7h1.3v0.6c0.7-0.1 1.5-0.1 2.3-0.1h1.7c0.8 0 1.6 0 2.3 0.1v-0.6h1.3l0.2 0.7c0.4 0 0.6 0.1 0.6 0.1h0.1c0.2 0.1 0.5 0.3 0.7 0.6 0.5 0.6 1.1 1.8 1.6 3.3v0.1h0.4l-0.1-0.3c-0.4-1.1 1.5-0.4 1.5-0.4 0.7 0.6 0.2 1.1 0 1.2-0.1 0.1-1 0.1-1.5 0.1l1.2 1.2h0.3l0.1 0.2c0.4 0.2 1.8 2.4 0.7 6.2zm-1-5.5h-0.2l-1.8-1.8-0.2-0.7c-0.6-1.8-1.1-2.7-1.5-3l-0.3-0.3c-0.1 0-0.2 0-0.5-0.1l-0.6-0.1c-0.7-0.1-1.8-0.1-3.2-0.2h-1.7c-1.4 0-2.5 0.1-3.2 0.2l-0.6 0.1c-0.2 0-0.4 0.1-0.5 0.1s-0.2 0.1-0.3 0.3c-0.3 0.4-0.8 1.2-1.5 3l-0.2 0.7-0.1 0.1-1.7 1.8h-0.2c-0.3 0.6-0.9 2.4-0.2 5.1l0.1 0.1 0.1 0.1v4.8c0 0.1 0.1 0.2 0.2 0.2h2.1c0.1 0 0.2-0.1 0.2-0.2v-2.3h3v0.3h1.3v-0.3h4.4v0.3h1.3v-0.3h3v2.3c0 0.1 0.1 0.2 0.2 0.2h2.1c0.1 0 0.2-0.1 0.2-0.2v-4.8l0.1-0.1 0.1-0.1c1-2.8 0.3-4.6 0.1-5.2z"/>
				<path class="st2" d="m532.8 333.2c11.2 0 20.3 9.1 20.3 20.3s-9.1 20.3-20.3 20.3-20.3-9.1-20.3-20.3c0-11.2 9.1-20.3 20.3-20.3m0-1.2c-11.9 0-21.5 9.6-21.5 21.5s9.7 21.5 21.5 21.5 21.5-9.6 21.5-21.5-9.6-21.5-21.5-21.5z"/>
		<path class="st3" d="m526.7 350.4l0.8-0.8 4.6 4.8-0.8 0.8-4.6-4.8zm6.8-6.2c-0.1 0-0.1 0 0 0-0.3 0-0.6 0.2-0.6 0.6 0 0.3 0.2 0.6 0.6 0.6 1.7 0.1 3.4 0.8 4.6 2 1.2 1.3 1.8 2.9 1.8 4.7 0 0.3 0.2 0.6 0.6 0.6 0.3 0 0.6-0.2 0.6-0.6 0.1-2.1-0.7-4-2.1-5.5-1.6-1.5-3.5-2.3-5.5-2.4zm0.8 8l5.9 6.3-0.4 0.4c-0.8 0.8-1.8 1.4-2.8 1.8l2.2 5.1h-13.6c-0.8 0-1.2-0.9-0.6-1.5l3.8-4.1c-0.9-0.5-1.7-1.1-2.4-1.9-3.6-3.8-3.4-9.9 0.4-13.6l0.4-0.4 5.9 6.3 2.2-2.1c0.3-0.3 0.7-0.2 1 0l0.4 0.4c0.3 0.3 0.2 0.7 0 1l-2.4 2.3zm0.3 12.4l-5.3-2.8-1.9 2c-0.3 0.3-0.1 0.7 0.3 0.7h6.9zm-7.6-18.5c-3 3.2-3 8.3 0.1 11.5 1.6 1.7 3.8 2.6 6.1 2.6 2 0 3.8-0.7 5.4-1.9l-11.6-12.2zm15-2.5c-2.1-2.2-4.9-3.5-7.9-3.5-0.3 0-0.6 0.2-0.6 0.6 0 0.3 0.2 0.6 0.6 0.6 2.7 0.1 5.2 1.2 7.1 3.2s2.8 4.5 2.8 7.2c0 0.3 0.2 0.6 0.6 0.6 0.3 0 0.6-0.2 0.6-0.6 0-3.1-1.1-5.9-3.2-8.1zm-8.2-1.5c-0.3 0-0.6 0.2-0.6 0.6 0 0.3 0.2 0.6 0.6 0.6 2.2 0.1 4.3 1 5.8 2.6s2.3 3.7 2.3 5.9c0 0.3 0.2 0.6 0.6 0.6 0.3 0 0.6-0.2 0.6-0.6 0.1-2.5-0.8-4.9-2.6-6.8-1.8-1.8-4.1-2.8-6.7-2.9z"/>
				<path class="st2" d="m233.8 161.3c11.2 0 20.3 9.1 20.3 20.3s-9.1 20.4-20.3 20.4-20.3-9.1-20.3-20.3 9.1-20.4 20.3-20.4m0-1.2c-11.9 0-21.5 9.6-21.5 21.5s9.6 21.5 21.5 21.5 21.5-9.6 21.5-21.5-9.6-21.5-21.5-21.5z"/>
		<path class="st3" d="m234.9 181.9c0-0.3 0.2-0.5 0.5-0.5s0.5 0.2 0.5 0.5-0.2 0.5-0.5 0.5c-0.3 0-0.5-0.2-0.5-0.5zm0.5 2.2c0.3 0 0.5-0.2 0.5-0.5s-0.2-0.5-0.5-0.5c-0.3 0-0.5 0.2-0.5 0.5s0.2 0.5 0.5 0.5zm-1.5-3.4c0.3 0 0.5-0.2 0.5-0.5s-0.2-0.5-0.5-0.5c-0.3 0-0.5 0.2-0.5 0.5s0.2 0.5 0.5 0.5zm0-1.7c0.3 0 0.5-0.2 0.5-0.5s-0.2-0.5-0.5-0.5c-0.3 0-0.5 0.2-0.5 0.5s0.2 0.5 0.5 0.5zm1.5 1.7c0.3 0 0.5-0.2 0.5-0.5s-0.2-0.5-0.5-0.5c-0.3 0-0.5 0.2-0.5 0.5s0.2 0.5 0.5 0.5zm1.5 1.7c0.3 0 0.5-0.2 0.5-0.5s-0.2-0.5-0.5-0.5c-0.3 0-0.5 0.2-0.5 0.5s0.3 0.5 0.5 0.5zm0-1.7c0.3 0 0.5-0.2 0.5-0.5s-0.2-0.5-0.5-0.5c-0.3 0-0.5 0.2-0.5 0.5s0.3 0.5 0.5 0.5zm-1.5-1.7c0.3 0 0.5-0.2 0.5-0.5s-0.2-0.5-0.5-0.5c-0.3 0-0.5 0.2-0.5 0.5s0.2 0.5 0.5 0.5zm1.5 5.1c0.3 0 0.5-0.2 0.5-0.5s-0.2-0.5-0.5-0.5c-0.3 0-0.5 0.2-0.5 0.5s0.3 0.5 0.5 0.5zm0-5.1c0.3 0 0.5-0.2 0.5-0.5s-0.2-0.5-0.5-0.5c-0.3 0-0.5 0.2-0.5 0.5s0.3 0.5 0.5 0.5zm-6.1 1.7c0.3 0 0.5-0.2 0.5-0.5s-0.2-0.5-0.5-0.5c-0.3 0-0.5 0.2-0.5 0.5s0.2 0.5 0.5 0.5zm0 1.7c0.3 0 0.5-0.2 0.5-0.5s-0.2-0.5-0.5-0.5c-0.3 0-0.5 0.2-0.5 0.5s0.2 0.5 0.5 0.5zm0 1.7c0.3 0 0.5-0.2 0.5-0.5s-0.2-0.5-0.5-0.5c-0.3 0-0.5 0.2-0.5 0.5s0.2 0.5 0.5 0.5zm3.1-1.7c0.3 0 0.5-0.2 0.5-0.5s-0.2-0.5-0.5-0.5c-0.3 0-0.5 0.2-0.5 0.5s0.2 0.5 0.5 0.5zm-3.1-3.4c0.3 0 0.5-0.2 0.5-0.5s-0.2-0.5-0.5-0.5c-0.3 0-0.5 0.2-0.5 0.5s0.2 0.5 0.5 0.5zm1.5 3.4c0.3 0 0.5-0.2 0.5-0.5s-0.2-0.5-0.5-0.5-0.5 0.2-0.5 0.5 0.3 0.5 0.5 0.5zm0 1.7c0.3 0 0.5-0.2 0.5-0.5s-0.2-0.5-0.5-0.5-0.5 0.2-0.5 0.5 0.3 0.5 0.5 0.5zm1.6 0c0.3 0 0.5-0.2 0.5-0.5s-0.2-0.5-0.5-0.5c-0.3 0-0.5 0.2-0.5 0.5s0.2 0.5 0.5 0.5zm-1.6-5.1c0.3 0 0.5-0.2 0.5-0.5s-0.2-0.5-0.5-0.5-0.5 0.2-0.5 0.5 0.3 0.5 0.5 0.5zm0 1.7c0.3 0 0.5-0.2 0.5-0.5s-0.2-0.5-0.5-0.5-0.5 0.2-0.5 0.5 0.3 0.5 0.5 0.5zm-2.9-11.4h9v4.5h1.1v-5.6h-11.2v5.6h1.1v-4.5zm9 23.6h-9v-4.5h-1.1v5.6h11.2v-5.6h-1.1v4.5zm8.4-17.4v11.2h-25.9v-11.2h25.9zm-18.5 1.1h-6.2v9h6.2v-9zm10.3 0h-9.5v9h9.5v-9zm7.1 0h-6.2v9h6.2v-9z"/>
				<path class="st2" d="m112.9 134.4c11.2 0 20.3 9.1 20.3 20.3s-9.1 20.3-20.3 20.3-20.3-9.1-20.3-20.3 9.1-20.3 20.3-20.3m0-1.2c-11.9 0-21.5 9.6-21.5 21.5s9.6 21.5 21.5 21.5 21.5-9.6 21.5-21.5-9.6-21.5-21.5-21.5z"/>
				<circle cy="158" cx="108.6" r="1.6" class="st3"/>
				<circle cy="158" cx="113.5" r="1.6" class="st3"/>
				<circle cy="162.4" cx="111" r="1.6" class="st3"/>
				<circle cy="162.4" cx="115.9" r="1.6" class="st3"/>
				<circle cy="158" cx="118.4" r="1.6" class="st3"/>
			<path class="st3" d="m122.5 147.9c-0.4-0.9-1.1-1.9-2.7-2.6-0.2-0.1-1-0.3-2-0.3-0.7 0-1.4 0.2-2 0.5-0.5-0.4-1.4-0.8-2.4-0.8-0.4 0-0.7 0-1.1 0.1-0.7-0.5-1.9-1.3-3.5-1.3-0.9 0-1.9 0.2-2.9 0.7-0.1 0.1-2.7 1.5-2.6 4.9-0.2 0.2-0.3 0.3-0.4 0.5-0.4 0.1-0.8 0.4-1.3 0.8-0.9 0.7-1.9 2-1.9 4.2 0 3.3 2.7 4.7 4.5 4.9v-1c-1.1-0.2-3.5-1.1-3.5-3.9 0-1.8 0.8-2.9 1.5-3.4 0.4-0.4 0.9-0.6 1.2-0.7l0.2-0.1 0.1-0.2c0.1-0.2 0.3-0.4 0.5-0.5l0.2-0.2v-0.3c-0.2-2.9 2-4.1 2.1-4.2 0.8-0.4 1.6-0.6 2.4-0.6 1.4 0 2.4 0.6 3 1.2l0.2 0.2 0.3-0.1c1.2-0.3 2.3-0.1 3.2 0.6l0.3 0.2 0.3-0.2c0.5-0.3 1.1-0.5 1.8-0.5 0.9 0 1.6 0.2 1.6 0.3 1.1 0.5 1.8 1.2 2.2 2.3l0.1 0.3h0.3c2.4 0.3 4.3 2.4 4.3 4.8 0 2.3-1.7 4.3-3.9 4.8v1c2.8-0.5 4.9-2.9 4.9-5.8-0.1-2.7-2.2-5.2-5-5.6z"/>
				<path class="st2" d="m233.5 78.4c11.2 0 20.3 9.1 20.3 20.3s-9.1 20.3-20.3 20.3-20.3-9.1-20.3-20.3 9-20.3 20.3-20.3m0-1.2c-11.9 0-21.5 9.6-21.5 21.5s9.6 21.5 21.5 21.5 21.5-9.6 21.5-21.5-9.7-21.5-21.5-21.5z"/>
		<path class="st3" d="m242.2 98.6l-0.3 0.3c-2.1 1.4-4.3-0.9-2.9-2.9l0.3-0.3c2-1.3 4.3 0.9 2.9 2.9zm5.4-0.4l-5 7h-0.3-17.1v-15.7h17.4l5 7c0.4 0.5 0.4 1.2 0 1.7zm-0.8-1.1l-4.7-6.5h-15.9v13.6h15.9l4.7-6.5c0.1-0.3 0.1-0.5 0-0.6zm-23-4.2h-1v14.5h16.9v-1h-15.9v-13.5z"/>
				<path class="st2" d="m110.9 303.2c11.2 0 20.3 9.1 20.3 20.3s-9.1 20.3-20.3 20.3-20.3-9.1-20.3-20.3c0-11.2 9.1-20.3 20.3-20.3m0-1.1c-11.9 0-21.5 9.6-21.5 21.5s9.6 21.5 21.5 21.5 21.5-9.6 21.5-21.5-9.6-21.5-21.5-21.5z"/>
		<path class="st5" d="m120.2 312.6h-18.5c-0.9 0-1.7 0.8-1.7 1.7v18.5c0 0.9 0.8 1.7 1.7 1.7h18.5c0.9 0 1.7-0.8 1.7-1.7v-18.5c-0.1-0.9-0.8-1.7-1.7-1.7zm0.6 20.2c0 0.3-0.3 0.6-0.6 0.6h-5.3v-7.5h2.7l0.4-3.1h-3.1v-2c0-0.9 0.3-1.5 1.6-1.5h1.7v-2.8c-0.3 0-1.3-0.1-2.4-0.1-2.4 0-4 1.5-4 4.1v2.3h-2.7v3.1h2.7v7.5h-10c-0.3 0-0.6-0.3-0.6-0.6v-18.5c0-0.3 0.3-0.6 0.6-0.6h18.5c0.3 0 0.6 0.3 0.6 0.6v18.5z"/>
		<circle cy="13.1" cx="437.1" r="20.3" class="st1"/>
				<path class="st5" d="m437.5 8.4c-2.9 0.1-5.1 1.5-6.4 4.1v0.1c-0.1 0.3-0.3 0.4-0.5 0.3s-0.3-0.3-0.1-0.6c0.4-0.6 0.7-1.3 1.2-1.8 1.2-1.5 2.8-2.4 4.7-2.6 2.8-0.4 5.1 0.5 7 2.6 0.5 0.6 0.9 1.2 1.2 2 0.1 0.2 0 0.4-0.2 0.5s-0.4 0-0.5-0.2c0-0.1-0.1-0.1-0.1-0.2-0.4-0.8-0.9-1.5-1.5-2.2-1.1-1.1-2.4-1.7-4-1.9h-0.4c-0.1-0.1-0.3-0.1-0.4-0.1z"/>
						<path class="st5" d="m425.7 14.4v0.3c-0.1 0.3-0.1 0.6-0.2 0.9-0.1 0.5-0.3 1-0.4 1.4 0 0.1-0.1 0.2-0.2 0.2h-0.6c-0.1 0-0.1 0-0.2-0.1-0.3-1-0.5-1.9-0.8-2.9 0-0.1 0-0.2 0.1-0.2h0.3c0.1 0 0.2 0 0.2 0.1 0.1 0.4 0.2 0.7 0.3 1.1s0.2 0.7 0.3 1.1c0 0.2 0 0.3 0.1 0.5v0.1c0-0.1 0-0.3 0.1-0.4 0.1-0.4 0.2-0.7 0.3-1.1l0.3-1.2c0-0.1 0.1-0.2 0.2-0.2h0.5c0.1 0 0.1 0 0.2 0.1 0.2 0.7 0.4 1.5 0.6 2.2 0 0.2 0.1 0.3 0.1 0.5v0.1-0.3c0.1-0.3 0.1-0.7 0.2-1 0.1-0.5 0.2-0.9 0.3-1.4 0-0.1 0.1-0.1 0.2-0.1h0.4c0.1 0 0.1 0.1 0.1 0.2-0.2 0.9-0.5 1.7-0.7 2.6 0 0.1 0 0.2-0.1 0.3 0 0.1-0.1 0.1-0.2 0.1h-0.6c-0.1 0-0.1 0-0.2-0.1-0.1-0.5-0.3-1.1-0.4-1.6s-0.2-0.9-0.2-1.2z"/>
						<path class="st5" d="m441.6 14.4v0-1.7c0-0.1 0-0.2 0.2-0.2h0.3c0.1 0 0.2 0.1 0.2 0.2v4.3c0 0.1-0.1 0.2-0.2 0.2h-0.2c-0.1 0-0.1 0-0.2-0.1 0-0.1 0-0.2-0.1-0.3l-0.1 0.1c-0.2 0.2-0.4 0.3-0.7 0.4-0.2 0-0.4 0-0.6-0.1-0.3-0.1-0.5-0.3-0.6-0.6-0.1-0.2-0.1-0.4-0.1-0.7s0-0.6 0.1-0.9c0.1-0.5 0.4-0.8 0.9-0.9 0.4-0.2 0.8-0.1 1.1 0.3zm-1.5 1.2v0.2c0 0.2 0 0.4 0.1 0.5 0.1 0.2 0.2 0.3 0.3 0.4 0.3 0.1 0.8 0.1 0.9-0.4 0 0 0-0.1 0.1-0.2 0.1-0.3 0.1-0.6 0.1-0.9 0-0.2-0.1-0.4-0.2-0.5-0.2-0.3-0.5-0.4-0.8-0.3-0.2 0.1-0.4 0.2-0.4 0.5-0.1 0.2-0.1 0.4-0.1 0.7z"/>
						<path class="st5" d="m436.6 15.5l0.2-0.2c0.4-0.4 0.7-0.8 1.1-1.2 0.1-0.1 0.1-0.1 0.2-0.1h0.4s0.1 0 0.1 0.1v0.1l-1.2 1.2s-0.1 0-0.1 0.1c0.1 0.2 0.3 0.3 0.4 0.5 0.3 0.4 0.6 0.7 0.9 1.1 0 0 0.1 0.1 0 0.1h-0.1-0.4c-0.1 0-0.2 0-0.2-0.1-0.4-0.5-0.8-1-1.1-1.4-0.2-0.1-0.2-0.1-0.2-0.2v0.2 1.4c0 0.1-0.1 0.2-0.2 0.2h-0.3c-0.1 0-0.2-0.1-0.2-0.2v-4.4c0-0.1 0-0.2 0.1-0.2h0.3c0.1 0 0.2 0.1 0.2 0.2v2.7l0.1 0.1z"/>
						<path class="st5" d="m448.4 16.4c0.1-0.2 0.1-0.5 0.2-0.7 0.2-0.5 0.3-1 0.5-1.5 0-0.1 0.1-0.1 0.2-0.1h0.4c0.1 0 0.1 0.1 0.1 0.2-0.4 1.2-0.8 2.3-1.2 3.5-0.1 0.4-0.4 0.7-0.8 0.8-0.1 0-0.1 0-0.2 0.1-0.1 0-0.2 0-0.2-0.1l-0.1-0.1c0-0.1 0-0.2 0.1-0.2 0.4-0.1 0.5-0.4 0.7-0.7 0.1-0.2 0.1-0.3 0-0.4-0.4-0.9-0.8-1.8-1.2-2.8-0.1-0.1 0-0.2 0.1-0.2h0.4c0.1 0 0.2 0 0.2 0.1 0.2 0.6 0.5 1.3 0.7 1.9 0 0 0.1 0.1 0.1 0.2z"/>
						<path class="st5" d="m445.5 16.8c-0.3 0.3-0.5 0.4-0.8 0.5-0.7 0-1.3-0.4-1.4-1.1-0.1-0.4-0.1-0.9 0.1-1.3 0.2-0.5 0.6-0.7 1.1-0.8 0.3 0 0.6 0 0.8 0.1 0.4 0.2 0.6 0.5 0.7 0.9 0 0.2 0.1 0.4 0.1 0.6v1.4c0 0.1 0 0.2-0.2 0.2h-0.2c-0.1 0-0.1 0-0.2-0.1 0.1-0.3 0.1-0.3 0-0.4zm0-1.2c0-0.2 0-0.4-0.1-0.5-0.1-0.5-0.4-0.7-0.9-0.6-0.3 0-0.5 0.2-0.6 0.5-0.1 0.4-0.1 0.9 0 1.3 0.1 0.3 0.3 0.5 0.6 0.5 0.4 0 0.6-0.1 0.8-0.5 0.2-0.2 0.2-0.5 0.2-0.7z"/>
						<path class="st5" d="m431.9 15.6c0 0.4-0.1 0.7-0.3 1-0.2 0.4-0.6 0.6-1 0.6h-0.7c-0.4-0.1-0.7-0.3-0.8-0.7-0.3-0.6-0.3-1.2 0-1.7 0.2-0.4 0.6-0.7 1.1-0.7 0.3 0 0.5 0 0.8 0.1 0.5 0.2 0.8 0.5 0.9 1-0.1 0-0.1 0.2 0 0.4zm-2.4 0v0.4c0 0.2 0.1 0.4 0.2 0.5 0.2 0.2 0.5 0.3 0.7 0.2 0.3 0 0.5-0.2 0.6-0.5 0.1-0.2 0.1-0.4 0.1-0.5 0-0.3 0-0.6-0.1-0.9s-0.4-0.5-0.7-0.5-0.6 0.2-0.7 0.5-0.1 0.5-0.1 0.8z"/>
						<path class="st5" d="m433.6 14.5c0-0.1 0.1-0.1 0.1-0.2 0.2-0.2 0.5-0.4 0.8-0.3 0.1 0 0.2 0 0.2 0.1 0.1 0 0.1 0.1 0.1 0.2s0 0.2-0.1 0.2c0 0.1-0.1 0.1-0.2 0.1s-0.2 0-0.4-0.1c-0.2 0-0.3 0-0.4 0.2s-0.2 0.3-0.2 0.6v1.8c0 0.1 0 0.2-0.1 0.2h-0.4c-0.1 0-0.1-0.1-0.1-0.2v-1.3-1.5c0-0.1 0-0.2 0.2-0.2h0.2c0.1 0 0.1 0 0.1 0.1 0.1 0 0.1 0.1 0.2 0.3v0z"/>
						<path class="st5" d="m450.6 16.7c0 0.3-0.2 0.5-0.5 0.5s-0.5-0.2-0.5-0.5 0.2-0.5 0.5-0.5c0.3 0.1 0.5 0.3 0.5 0.5zm-0.9 0c0 0.2 0.1 0.4 0.4 0.4 0.2 0 0.3-0.2 0.3-0.4s-0.1-0.4-0.3-0.4-0.4 0.2-0.4 0.4zm0.3 0.3h-0.1v-0.5h0.2 0.2v0.1s0 0.1-0.1 0.1c0 0 0.1 0 0.1 0.1v0.1h-0.1v-0.1s0-0.1-0.1-0.1v0.3zm0-0.3c0.1 0 0.2 0 0.2-0.1 0 0 0-0.1-0.1-0.1h-0.1v0.2z"/>
								<circle cy="265.1" cx="546.2" r="20.3" class="st1"/>
				<path class="st5" d="m537.6 258.9s-0.2 3 5 8.1c5.1 5 5.7 8.1 5.4 8.1h3.7s0.3-5.4-5.5-9.5c0 0-4-3.3-4.6-6.1 0 0-2 0.1-3.3-1 0-0.2-0.7-0.5-0.7 0.4z"/>
					<path class="st5" d="m545.5 266.9c1 0.7 1.9 1.5 2.5 2.3 0.5-0.5 1-1.1 1.7-1.7 5.1-5 5-8.6 5-8.6 0-0.8-0.7-0.4-0.7-0.4-1.4 1.1-3.3 1.1-3.3 1.1-0.6 2.8-4.6 6.4-4.6 6.4-0.3 0.2-0.5 0.4-0.8 0.6 0.1 0.2 0.2 0.3 0.2 0.3z"/>
					<path class="st5" d="m545.5 271.8c-0.7-0.9-1.5-2.1-2.7-3.3-2.4 3.4-2.2 6.5-2.2 6.5h3.7c-0.2 0 0-1.4 1.2-3.2z"/>
				<path class="st5" d="m544.3 258h3.7s0.5 0.9 0.4 1.5c-0.2 0.9-2.2 3.2-2.2 3.2s-1.5-2.1-2.1-3.3c-0.1 0-0.3-1.4 0.2-1.4z"/>
				<circle cy="256" cx="551" r="1.6" class="st5"/>
				<circle cy="256" cx="541.5" r="1.6" class="st5"/>
				<circle cy="254.7" cx="546.3" r="1.6" class="st5"/>
							<circle cy="221.9" cx="110.9" r="20.3" class="st1"/>
		<polygon points="114 213.1 114 216.7 116.3 216.7 116.3 226.2 120.1 226.2 120.1 213.1" class="st5"/>
		<polygon points="108.2 212.1 99.9 212.1 99.9 216.7 108.2 216.7 113.1 222.9 113.1 212.1" class="st5"/>
		<polygon points="112.9 231.6 121.2 231.6 121.2 227 112.9 227 108 220.9 108 231.6" class="st5"/>
		<polygon points="107.2 230.7 107.2 227 104.8 227 104.8 217.5 101.1 217.5 101.1 230.7" class="st5"/>
				<path class="st2" d="m335.3 244c11.2 0 20.3 9.1 20.3 20.3s-9.1 20.3-20.3 20.3-20.3-9.1-20.3-20.3c-0.1-11.2 9-20.3 20.3-20.3m0-1.2c-11.9 0-21.5 9.6-21.5 21.5s9.6 21.5 21.5 21.5 21.5-9.6 21.5-21.5c-0.1-11.8-9.7-21.5-21.5-21.5z"/>
			<path class="st3" d="m344.4 259.6h-1.8l-0.1-0.4-1.1-3.5c-0.1-0.4-0.6-0.6-1-0.5l-15.9 5.1c-0.4 0.1-0.6 0.6-0.5 1l1.1 3.5 0.9 2.7v3.4c0 1 0.8 1.8 1.8 1.8h16.8c1 0 1.8-0.8 1.8-1.8v-9.4c-0.2-1.1-1-1.9-2-1.9zm0.8 5.5v5.7c0 0.4-0.4 0.8-0.8 0.8h-16.8c-0.4 0-0.8-0.4-0.8-0.8v-5.7h18.4v-1.9h-18.3v-1.8c0-0.4 0.4-0.8 0.8-0.8h16.7c0.4 0 0.8 0.4 0.8 0.8v3.7z"/>
			<polygon points="342.4 266.6 342.4 267.6 342.4 267.6 344.3 267.6 344.3 266.6" class="st3"/>
			<rect y="266.6" x="340" height="1" class="st3" width="1.9"/>
			<polygon points="336.6 267.6 336.6 267.6 339.4 267.6 339.4 266.6 336.6 266.6" class="st3"/>
			<polygon points="327.9 267.6 327.9 267.6 335.1 267.6 335.1 266.6 327.9 266.6" class="st3"/>
			<polygon points="327.9 269.6 327.9 269.6 335.1 269.6 335.1 268.5 327.9 268.5" class="st3"/>
	</g>
</svg>
