<?xml version="1.0" encoding="utf-8"?>
<!-- Generator: Adobe Illustrator 18.1.1, SVG Export Plug-In . SVG Version: 6.00 Build 0)  -->
<svg version="1.1" id="Layer_1" xmlns="http://www.w3.org/2000/svg" xmlns:xlink="http://www.w3.org/1999/xlink" x="0px" y="0px"
	 width="830px" height="477.5px" viewBox="297 -2243.5 830 477.5" enable-background="new 297 -2243.5 830 477.5"
	 xml:space="preserve">
<rect x="297" y="-2187" fill="#1D1D1D" width="124" height="191.5"/>
<rect x="421" y="-2187" fill="#1D1D1D" width="124" height="191.5"/>
<rect x="1003" y="-2187" fill="#1D1D1D" width="124" height="191.5"/>
<rect x="879" y="-2187" fill="#1D1D1D" width="124" height="191.5"/>
<rect x="297" y="-1956.1" fill="#1D1D1D" width="830" height="75.1"/>
<rect x="297" y="-1841.3" fill="#1D1D1D" width="830" height="75.3"/>
<rect x="297" y="-2243.5" fill="#1D1D1D" width="411.5" height="63"/>
<rect x="553" y="-2174" fill="#1D1D1D" width="319.5" height="40"/>
<rect x="553" y="-2134" fill="#1D1D1D" width="319.5" height="69.2"/>
<rect x="553" y="-2065.7" fill="#1D1D1D" width="319.5" height="70.2"/>
<rect x="715.5" y="-2243.5" fill="#1D1D1D" width="411.5" height="63"/>
<rect x="297" y="-1989" fill="#1D1D1D" width="830" height="39.5"/>
<path fill="#17A0DB" d="M485.2-2207.5c-0.7,0.7-1.8,1.1-3.1,1.1H478v-12.1h4.1c1.3,0,2.3,0.4,3.1,1.1c1.3,1.3,1.2,3.1,1.2,4.8
	C486.4-2210.9,486.5-2208.8,485.2-2207.5z M484.3-2216.5c-0.6-0.6-1.4-0.9-2.4-0.9h-2.6v9.8h2.6c0.9,0,1.8-0.2,2.4-0.9
	c0.8-0.9,0.8-2.7,0.8-4.1C485.1-2214.1,485.2-2215.6,484.3-2216.5z"/>
<path fill="#17A0DB" d="M490-2210.3c0,1.8,0.9,2.9,2.5,2.9c1,0,1.5-0.3,2.2-1l0.8,0.7c-0.9,0.9-1.6,1.3-3.1,1.3
	c-2.2,0-3.7-1.3-3.7-4.3c0-2.7,1.3-4.3,3.4-4.3c2.2,0,3.4,1.6,3.4,4v0.6L490-2210.3L490-2210.3z M494.2-2212.6
	c-0.3-0.8-1.1-1.3-2-1.3c-0.9,0-1.6,0.5-2,1.3c-0.2,0.5-0.2,0.7-0.3,1.4h4.4C494.4-2211.9,494.4-2212.1,494.2-2212.6L494.2-2212.6z"
	/>
<path fill="#17A0DB" d="M500.9-2206.3c-1.4,0-2.5-0.3-3.4-1.2l0.8-0.8c0.7,0.7,1.6,1,2.6,1c1.4,0,2.2-0.5,2.2-1.5
	c0-0.7-0.4-1.1-1.4-1.2l-1.4-0.1c-1.6-0.1-2.5-0.9-2.5-2.2c0-1.5,1.3-2.4,3.1-2.4c1.2,0,2.3,0.3,3,0.9l-0.8,0.8
	c-0.6-0.5-1.4-0.7-2.2-0.7c-1.2,0-1.9,0.5-1.9,1.4c0,0.7,0.4,1.1,1.5,1.2l1.3,0.1c1.5,0.1,2.5,0.7,2.5,2.3
	C504.3-2207.2,502.9-2206.3,500.9-2206.3L500.9-2206.3z"/>
<path fill="#17A0DB" d="M506.6-2217.1v-1.4h1.4v1.4H506.6z M506.7-2206.4v-8.4h1.2v8.4H506.7z"/>
<path fill="#17A0DB" d="M513.7-2202.6c-1.3,0-2-0.3-2.8-1.1l0.8-0.8c0.6,0.5,1,0.8,2,0.8c1.6,0,2.3-1.1,2.3-2.6v-1.2
	c-0.7,0.9-1.4,1.1-2.3,1.1c-0.8,0-1.6-0.3-2-0.7c-0.8-0.8-1-2.1-1-3.5c0-1.4,0.2-2.7,1-3.5c0.4-0.4,1.2-0.7,2-0.7
	c0.9,0,1.7,0.2,2.3,1.1v-1h1.2v8.6C517.1-2204.1,515.9-2202.6,513.7-2202.6z M513.9-2213.8c-1.8,0-2.1,1.6-2.1,3.1s0.3,3.1,2.1,3.1
	c1.8,0,2.1-1.6,2.1-3.1S515.7-2213.8,513.9-2213.8z"/>
<path fill="#17A0DB" d="M525.6-2206.4v-5.1c0-1.5-0.8-2.2-2.1-2.2s-2.1,0.8-2.1,2.2v5.2h-1.2v-8.4h1.2v0.9c0.6-0.7,1.4-1,2.3-1
	c0.9,0,1.6,0.3,2.1,0.8c0.6,0.6,0.9,1.4,0.9,2.3v5.4L525.6-2206.4L525.6-2206.4z"/>
<path fill="#17A0DB" d="M673.7-2143.8c-1.2,0-2.3-0.4-3.1-1.3c-1.1-1.1-1.1-2.3-1.1-4.9s0-3.8,1.1-4.9c0.8-0.8,1.9-1.3,3.1-1.3
	c2.2,0,3.8,1.3,4.2,3.6h-1.3c-0.3-1.5-1.4-2.4-2.9-2.4c-0.8,0-1.6,0.3-2.1,0.9c-0.8,0.8-0.8,1.6-0.8,4.1s0.1,3.4,0.8,4.1
	c0.5,0.5,1.3,0.9,2.1,0.9c1.5,0,2.6-1,2.9-2.4h1.3C677.5-2145.1,675.9-2143.8,673.7-2143.8L673.7-2143.8z"/>
<path fill="#17A0DB" d="M685.9-2144.7c-0.6,0.6-1.4,1-2.4,1s-1.8-0.4-2.4-1c-0.9-0.9-1-2-1-3.3s0.2-2.5,1-3.3c0.6-0.6,1.4-1,2.4-1
	s1.8,0.4,2.4,1c0.8,0.9,1,2,1,3.3S686.8-2145.6,685.9-2144.7z M685.1-2150.7c-0.4-0.4-0.9-0.6-1.5-0.6c-0.6,0-1.1,0.2-1.5,0.6
	c-0.6,0.6-0.7,1.6-0.7,2.6s0.1,2,0.7,2.6c0.4,0.4,0.9,0.6,1.5,0.6c0.6,0,1.1-0.2,1.5-0.6c0.6-0.6,0.7-1.6,0.7-2.6
	S685.7-2150,685.1-2150.7z"/>
<path fill="#17A0DB" d="M691.7-2143.9c-1.5,0-2.1-1-2.1-2.2v-9.9h1.2v9.8c0,0.8,0.3,1.2,1.1,1.2h0.7v1.1H691.7L691.7-2143.9z"/>
<path fill="#17A0DB" d="M696.7-2143.9c-1.5,0-2.1-1-2.1-2.2v-9.9h1.2v9.8c0,0.8,0.3,1.2,1.1,1.2h0.7v1.1H696.7L696.7-2143.9z"/>
<path fill="#17A0DB" d="M704.4-2143.9v-0.8c-0.7,0.7-1.3,0.9-2.4,0.9c-1.2,0-1.8-0.2-2.4-0.8c-0.4-0.4-0.6-1-0.6-1.7
	c0-1.5,1-2.4,2.9-2.4h2.5v-0.8c0-1.2-0.6-1.8-2.1-1.8c-1.1,0-1.6,0.3-2.1,1l-0.8-0.8c0.7-1,1.6-1.2,3-1.2c2.2,0,3.3,1,3.3,2.8v5.7
	L704.4-2143.9L704.4-2143.9z M704.4-2147.8h-2.3c-1.3,0-1.9,0.5-1.9,1.5s0.6,1.4,1.9,1.4c0.7,0,1.3-0.1,1.9-0.6
	c0.3-0.3,0.4-0.7,0.4-1.4V-2147.8z"/>
<path fill="#17A0DB" d="M714.2-2144.5c-0.4,0.4-1.2,0.7-2,0.7c-0.9,0-1.7-0.2-2.4-1.1v1h-1.2v-12.1h1.2v4.7c0.7-0.9,1.4-1.1,2.4-1.1
	c0.8,0,1.6,0.3,2,0.7c0.9,0.9,1,2.2,1,3.6C715.3-2146.8,715.1-2145.4,714.2-2144.5z M711.9-2151.3c-1.8,0-2.1,1.6-2.1,3.2
	c0,1.6,0.3,3.2,2.1,3.2c1.8,0,2.1-1.6,2.1-3.2C714-2149.7,713.8-2151.3,711.9-2151.3z"/>
<path fill="#17A0DB" d="M723.2-2144.7c-0.6,0.6-1.4,1-2.4,1s-1.8-0.4-2.4-1c-0.8-0.9-1-2-1-3.3s0.2-2.5,1-3.3c0.6-0.6,1.4-1,2.4-1
	s1.8,0.4,2.4,1c0.8,0.9,1,2,1,3.3S724.1-2145.6,723.2-2144.7z M722.4-2150.7c-0.4-0.4-0.9-0.6-1.5-0.6s-1.1,0.2-1.5,0.6
	c-0.6,0.6-0.7,1.6-0.7,2.6s0.1,2,0.7,2.6c0.4,0.4,0.9,0.6,1.5,0.6s1.1-0.2,1.5-0.6c0.6-0.6,0.7-1.6,0.7-2.6S723-2150,722.4-2150.7z"
	/>
<path fill="#17A0DB" d="M731.6-2150.7c-0.5-0.5-0.8-0.6-1.4-0.6c-1.2,0-2,1-2,2.2v5.1H727v-8.4h1.2v1c0.5-0.7,1.4-1.1,2.3-1.1
	c0.8,0,1.4,0.2,2,0.8L731.6-2150.7z"/>
<path fill="#17A0DB" d="M738.6-2143.9v-0.8c-0.7,0.7-1.3,0.9-2.4,0.9c-1.2,0-1.8-0.2-2.4-0.8c-0.4-0.4-0.6-1-0.6-1.7
	c0-1.5,1-2.4,2.9-2.4h2.5v-0.8c0-1.2-0.6-1.8-2.1-1.8c-1.1,0-1.6,0.3-2.1,1l-0.8-0.8c0.7-1,1.6-1.2,3-1.2c2.2,0,3.3,1,3.3,2.8v5.7
	L738.6-2143.9L738.6-2143.9z M738.6-2147.8h-2.3c-1.3,0-1.9,0.5-1.9,1.5s0.6,1.4,1.9,1.4c0.7,0,1.3-0.1,1.9-0.6
	c0.3-0.3,0.4-0.7,0.4-1.4V-2147.8z"/>
<path fill="#17A0DB" d="M745.2-2143.9c-1.4,0-2.1-1-2.1-2.2v-5.1H742v-0.9h1.1v-2.6h1.2v2.6h1.8v0.9h-1.8v5.1c0,0.8,0.4,1.2,1.1,1.2
	h0.6v1.1L745.2-2143.9L745.2-2143.9z"/>
<path fill="#17A0DB" d="M749.1-2147.8c0,1.8,0.9,2.9,2.5,2.9c1,0,1.5-0.3,2.2-1l0.8,0.7c-0.8,0.9-1.6,1.3-3.1,1.3
	c-2.2,0-3.7-1.3-3.7-4.3c0-2.7,1.3-4.3,3.4-4.3c2.2,0,3.4,1.6,3.4,4v0.6L749.1-2147.8L749.1-2147.8z M753.2-2150.1
	c-0.3-0.8-1.1-1.3-2-1.3s-1.6,0.5-2,1.3c-0.2,0.5-0.2,0.7-0.3,1.4h4.4C753.5-2149.4,753.4-2149.6,753.2-2150.1z"/>
<path fill="#17A0DB" d="M695.3-1963.4c-0.7,0.7-1.8,1.1-3.1,1.1h-4.1v-12.1h4.1c1.3,0,2.3,0.4,3.1,1.1c1.3,1.3,1.2,3.1,1.2,4.8
	S696.5-1964.6,695.3-1963.4z M694.4-1972.3c-0.6-0.6-1.4-0.9-2.4-0.9h-2.6v9.8h2.6c0.9,0,1.8-0.2,2.4-0.9c0.8-0.9,0.8-2.7,0.8-4.1
	S695.2-1971.4,694.4-1972.3z"/>
<path fill="#17A0DB" d="M700.1-1966.1c0,1.8,0.9,2.9,2.5,2.9c1,0,1.5-0.3,2.2-1l0.8,0.7c-0.8,0.9-1.6,1.3-3.1,1.3
	c-2.2,0-3.7-1.3-3.7-4.3c0-2.7,1.3-4.3,3.4-4.3c2.2,0,3.4,1.6,3.4,4v0.6L700.1-1966.1L700.1-1966.1z M704.2-1968.4
	c-0.3-0.8-1.1-1.3-2-1.3s-1.6,0.5-2,1.3c-0.2,0.5-0.2,0.7-0.3,1.4h4.4C704.4-1967.7,704.4-1967.9,704.2-1968.4z"/>
<path fill="#17A0DB" d="M713.9-1962.9c-0.4,0.4-1.2,0.7-2,0.7c-0.9,0-1.7-0.2-2.4-1.1v4.7h-1.2v-12.1h1.2v1c0.7-0.9,1.4-1.1,2.4-1.1
	c0.8,0,1.6,0.3,2,0.7c0.9,0.8,1,2.2,1,3.6C714.9-1965.1,714.8-1963.7,713.9-1962.9L713.9-1962.9z M711.6-1969.6
	c-1.8,0-2.1,1.6-2.1,3.2s0.3,3.2,2.1,3.2c1.8,0,2.1-1.6,2.1-3.2S713.4-1969.6,711.6-1969.6z"/>
<path fill="#17A0DB" d="M719.7-1962.2c-1.5,0-2.1-1-2.1-2.2v-9.9h1.2v9.8c0,0.8,0.3,1.2,1.1,1.2h0.7v1.1H719.7L719.7-1962.2z"/>
<path fill="#17A0DB" d="M727.6-1963.1c-0.6,0.6-1.4,1-2.4,1s-1.8-0.4-2.4-1c-0.9-0.9-1-2-1-3.3c0-1.3,0.2-2.5,1-3.3
	c0.6-0.6,1.4-1,2.4-1s1.8,0.4,2.4,1c0.8,0.9,1,2,1,3.3C728.6-1965.1,728.5-1963.9,727.6-1963.1z M726.8-1969
	c-0.4-0.4-0.9-0.6-1.5-0.6c-0.6,0-1.1,0.2-1.5,0.6c-0.6,0.6-0.7,1.6-0.7,2.6c0,0.9,0.1,2,0.7,2.6c0.4,0.4,0.9,0.6,1.5,0.6
	c0.6,0,1.1-0.2,1.5-0.6c0.6-0.6,0.7-1.6,0.7-2.6C727.4-1967.3,727.4-1968.4,726.8-1969z"/>
<path fill="#17A0DB" d="M733.2-1960.2c-0.2,0.5-0.4,0.8-0.6,1c-0.4,0.4-1,0.6-1.6,0.6h-0.5v-1.1h0.4c0.8,0,1.1-0.3,1.4-1l0.6-1.6
	l-3-8.2h1.3l2.3,6.7l2.3-6.7h1.3L733.2-1960.2L733.2-1960.2z"/>
<path fill="#FFFFFF" d="M649.7-2093.3l-1-2.7h-5.3l-1,2.7H641l4.5-12.1h1.1l4.4,12.1H649.7L649.7-2093.3z M646.1-2103.6l-2.3,6.4
	h4.5L646.1-2103.6z"/>
<path fill="#FFFFFF" d="M658.2-2093.3v-5.2c0-1.5-0.8-2.2-2.1-2.2c-1.3,0-2.1,0.8-2.1,2.2v5.2h-1.2v-8.4h1.2v0.9
	c0.6-0.7,1.4-1,2.3-1s1.6,0.3,2.1,0.8c0.6,0.6,0.9,1.4,0.9,2.3v5.4H658.2L658.2-2093.3z"/>
<path fill="#FFFFFF" d="M664.5-2091.3c-0.2,0.5-0.4,0.8-0.6,1c-0.4,0.4-1,0.6-1.6,0.6h-0.5v-1.1h0.4c0.9,0,1.1-0.3,1.4-1l0.6-1.6
	l-3-8.2h1.3l2.3,6.7l2.3-6.7h1.3L664.5-2091.3L664.5-2091.3z"/>
<path fill="#FFFFFF" d="M675.6-2093.9c-0.4,0.4-1.2,0.7-2,0.7c-0.9,0-1.7-0.2-2.4-1.1v4.7H670v-12.1h1.2v1c0.7-0.9,1.4-1.1,2.4-1.1
	c0.8,0,1.6,0.3,2,0.7c0.9,0.9,1,2.2,1,3.6C676.6-2096.2,676.5-2094.8,675.6-2093.9L675.6-2093.9z M673.3-2100.7
	c-1.8,0-2.1,1.6-2.1,3.2s0.3,3.2,2.1,3.2c1.8,0,2.1-1.6,2.1-3.2S675.1-2100.7,673.3-2100.7z"/>
<path fill="#FFFFFF" d="M684.6-2094.2c-0.6,0.6-1.4,1-2.4,1s-1.8-0.4-2.4-1c-0.9-0.9-1-2-1-3.3s0.2-2.5,1-3.3c0.6-0.6,1.4-1,2.4-1
	s1.8,0.4,2.4,1c0.9,0.9,1,2,1,3.3S685.5-2095,684.6-2094.2z M683.8-2100.1c-0.4-0.4-0.9-0.6-1.5-0.6c-0.6,0-1.1,0.2-1.5,0.6
	c-0.6,0.6-0.7,1.6-0.7,2.6s0.1,2,0.7,2.6c0.4,0.4,0.9,0.6,1.5,0.6c0.6,0,1.1-0.2,1.5-0.6c0.6-0.6,0.7-1.6,0.7-2.6
	S684.4-2099.5,683.8-2100.1z"/>
<path fill="#FFFFFF" d="M688.2-2104.1v-1.4h1.4v1.4H688.2z M688.3-2093.3v-8.4h1.2v8.4H688.3z"/>
<path fill="#FFFFFF" d="M697.9-2093.3v-5.2c0-1.5-0.8-2.2-2.1-2.2s-2.1,0.8-2.1,2.2v5.2h-1.2v-8.4h1.2v0.9c0.6-0.7,1.4-1,2.3-1
	c0.9,0,1.6,0.3,2.1,0.8c0.6,0.6,0.9,1.4,0.9,2.3v5.4H697.9L697.9-2093.3z"/>
<path fill="#FFFFFF" d="M704.5-2093.3c-1.4,0-2.1-1-2.1-2.2v-5.1h-1.1v-0.9h1.1v-2.6h1.2v2.6h1.8v0.9h-1.8v5.1
	c0,0.8,0.4,1.2,1.1,1.2h0.6v1.1h-0.8V-2093.3z"/>
<path fill="#FFFFFF" d="M712.2-2093.3v-12.1h7.5v1.2h-6.2v4.3h5.3v1.2h-5.3v4.4h6.2v1.2h-7.5V-2093.3z"/>
<path fill="#FFFFFF" d="M726.8-2093.3l-2-3.2l-2,3.2h-1.5l2.8-4.3l-2.7-4.1h1.5l1.9,3.1l1.9-3.1h1.5l-2.7,4.1l2.8,4.3H726.8
	L726.8-2093.3z"/>
<path fill="#FFFFFF" d="M733.2-2093.2c-2.1,0-3.7-1.4-3.7-4.3s1.6-4.3,3.7-4.3c1.2,0,1.9,0.3,2.8,1.2l-0.8,0.8
	c-0.6-0.7-1.1-0.9-1.9-0.9c-0.8,0-1.5,0.3-1.9,1c-0.4,0.5-0.5,1.2-0.5,2.2c0,1.1,0.2,1.7,0.5,2.2c0.4,0.6,1.1,1,1.9,1
	c0.8,0,1.3-0.3,1.9-1l0.8,0.8C735.1-2093.5,734.4-2093.2,733.2-2093.2z"/>
<path fill="#FFFFFF" d="M743.7-2093.3v-5.2c0-1.5-0.8-2.2-2-2.2s-2.1,0.8-2.1,2.2v5.2h-1.2v-12.1h1.2v4.7c0.6-0.7,1.4-1,2.3-1
	c1.9,0,3,1.2,3,3.1v5.4h-1.2L743.7-2093.3z"/>
<path fill="#FFFFFF" d="M752.6-2093.3v-0.8c-0.7,0.7-1.3,0.9-2.4,0.9c-1.2,0-1.8-0.2-2.4-0.8c-0.4-0.4-0.6-1-0.6-1.7
	c0-1.5,1-2.4,2.9-2.4h2.5v-0.8c0-1.2-0.6-1.8-2.1-1.8c-1.1,0-1.6,0.3-2.1,1l-0.8-0.8c0.7-1,1.6-1.2,3-1.2c2.2,0,3.3,1,3.3,2.8v5.7
	h-1.3V-2093.3z M752.6-2097.2h-2.3c-1.3,0-1.9,0.5-1.9,1.5s0.6,1.4,1.9,1.4c0.7,0,1.3-0.1,1.9-0.6c0.3-0.3,0.4-0.7,0.4-1.4V-2097.2z
	"/>
<path fill="#FFFFFF" d="M762.2-2093.3v-5.2c0-1.5-0.8-2.2-2.1-2.2c-1.3,0-2.1,0.8-2.1,2.2v5.2h-1.2v-8.4h1.2v0.9
	c0.6-0.7,1.4-1,2.3-1s1.6,0.3,2.1,0.8c0.6,0.6,0.9,1.4,0.9,2.3v5.4H762.2L762.2-2093.3z"/>
<path fill="#FFFFFF" d="M769-2089.5c-1.3,0-2-0.3-2.8-1.1l0.8-0.8c0.6,0.5,1,0.8,2,0.8c1.6,0,2.3-1.1,2.3-2.6v-1.3
	c-0.7,0.9-1.4,1.1-2.3,1.1c-0.8,0-1.6-0.3-2-0.7c-0.8-0.8-1-2.1-1-3.5c0-1.4,0.2-2.7,1-3.5c0.4-0.4,1.2-0.7,2-0.7
	c0.9,0,1.7,0.2,2.3,1.1v-1h1.2v8.6C772.5-2091,771.2-2089.5,769-2089.5L769-2089.5z M769.2-2100.7c-1.8,0-2.1,1.6-2.1,3.1
	s0.3,3.1,2.1,3.1s2.1-1.6,2.1-3.1S771.1-2100.7,769.2-2100.7z"/>
<path fill="#FFFFFF" d="M776.4-2097.2c0,1.8,0.9,2.9,2.5,2.9c1,0,1.5-0.3,2.2-1l0.8,0.7c-0.8,0.9-1.6,1.3-3.1,1.3
	c-2.2,0-3.7-1.3-3.7-4.3c0-2.7,1.3-4.3,3.4-4.3c2.2,0,3.4,1.6,3.4,4v0.6h-5.5L776.4-2097.2z M780.5-2099.5c-0.3-0.8-1.1-1.3-2-1.3
	s-1.6,0.5-2,1.3c-0.2,0.5-0.2,0.7-0.3,1.4h4.4C780.7-2098.8,780.7-2099,780.5-2099.5z"/>
<path fill="#FFFFFF" d="M647.9-2032.9l-1-2.7h-5.3l-1,2.7h-1.4l4.5-12.1h1.1l4.4,12.1H647.9L647.9-2032.9z M644.3-2043.2l-2.3,6.4
	h4.5L644.3-2043.2z"/>
<path fill="#FFFFFF" d="M656.3-2032.9v-5.2c0-1.5-0.8-2.2-2.1-2.2c-1.3,0-2.1,0.8-2.1,2.2v5.2H651v-8.4h1.2v0.9c0.6-0.7,1.4-1,2.3-1
	c0.9,0,1.6,0.3,2.1,0.8c0.6,0.6,0.9,1.4,0.9,2.3v5.4H656.3L656.3-2032.9z"/>
<path fill="#FFFFFF" d="M662.6-2030.9c-0.2,0.5-0.4,0.8-0.6,1c-0.4,0.4-1,0.6-1.6,0.6h-0.5v-1.1h0.4c0.9,0,1.1-0.3,1.4-1l0.6-1.6
	l-3-8.2h1.3l2.3,6.7l2.3-6.7h1.3L662.6-2030.9L662.6-2030.9z"/>
<path fill="#FFFFFF" d="M673.8-2033.6c-0.4,0.4-1.2,0.7-2,0.7c-0.9,0-1.7-0.2-2.4-1.1v4.7h-1.2v-12.1h1.2v1c0.7-0.9,1.4-1.1,2.4-1.1
	c0.8,0,1.6,0.3,2,0.7c0.9,0.8,1,2.2,1,3.6S674.6-2034.4,673.8-2033.6L673.8-2033.6z M671.5-2040.3c-1.8,0-2.1,1.6-2.1,3.2
	s0.3,3.2,2.1,3.2s2.1-1.6,2.1-3.2S673.3-2040.3,671.5-2040.3z"/>
<path fill="#FFFFFF" d="M682.8-2033.8c-0.6,0.6-1.4,1-2.4,1s-1.8-0.4-2.4-1c-0.9-0.9-1-2-1-3.3c0-1.3,0.2-2.5,1-3.3
	c0.6-0.6,1.4-1,2.4-1s1.8,0.4,2.4,1c0.9,0.9,1,2,1,3.3C683.8-2035.8,683.6-2034.7,682.8-2033.8z M681.9-2039.7
	c-0.4-0.4-0.9-0.6-1.5-0.6c-0.6,0-1.1,0.2-1.5,0.6c-0.6,0.6-0.7,1.6-0.7,2.6c0,0.9,0.1,2,0.7,2.6c0.4,0.4,0.9,0.6,1.5,0.6
	c0.6,0,1.1-0.2,1.5-0.6c0.6-0.6,0.7-1.6,0.7-2.6S682.5-2039.1,681.9-2039.7z"/>
<path fill="#FFFFFF" d="M686.3-2043.7v-1.4h1.4v1.4H686.3z M686.4-2032.9v-8.4h1.2v8.4H686.4z"/>
<path fill="#FFFFFF" d="M696.1-2032.9v-5.2c0-1.5-0.8-2.2-2.1-2.2s-2.1,0.8-2.1,2.2v5.2h-1.2v-8.4h1.2v0.9c0.6-0.7,1.4-1,2.3-1
	c0.9,0,1.6,0.3,2.1,0.8c0.6,0.6,0.9,1.4,0.9,2.3v5.4H696.1L696.1-2032.9z"/>
<path fill="#FFFFFF" d="M702.6-2032.9c-1.4,0-2.1-1-2.1-2.2v-5.1h-1.1v-0.9h1.1v-2.6h1.2v2.6h1.8v0.9h-1.8v5.1
	c0,0.8,0.4,1.2,1.1,1.2h0.6v1.1L702.6-2032.9L702.6-2032.9z"/>
<path fill="#FFFFFF" d="M717.4-2032.9l-1-2.7h-5.3l-1,2.7h-1.4l4.5-12.1h1.1l4.4,12.1H717.4L717.4-2032.9z M713.8-2043.2l-2.3,6.4
	h4.5L713.8-2043.2z"/>
<path fill="#FFFFFF" d="M725.2-2037.9H722v5h-1.3v-12.1h4.5c2.2,0,3.7,1.4,3.7,3.6C728.9-2039.2,727.5-2037.9,725.2-2037.9z
	 M725.1-2043.9H722v4.8h3.1c1.5,0,2.6-0.8,2.6-2.4S726.6-2043.9,725.1-2043.9L725.1-2043.9z"/>
<path fill="#FFFFFF" d="M731.5-2032.9v-12.1h1.3v12.1H731.5z"/>
<path fill="#FFFFFF" d="M745-2037.9h-3.2v5h-1.3v-12.1h4.5c2.2,0,3.7,1.4,3.7,3.6C748.7-2039.2,747.2-2037.9,745-2037.9z
	 M744.9-2043.9h-3.1v4.8h3.1c1.5,0,2.6-0.8,2.6-2.4C747.4-2043.1,746.4-2043.9,744.9-2043.9L744.9-2043.9z"/>
<path fill="#FFFFFF" d="M756.2-2033.8c-0.6,0.6-1.4,1-2.4,1s-1.8-0.4-2.4-1c-0.8-0.9-1-2-1-3.3c0-1.3,0.2-2.5,1-3.3
	c0.6-0.6,1.4-1,2.4-1s1.8,0.4,2.4,1c0.9,0.9,1,2,1,3.3C757.2-2035.8,757-2034.7,756.2-2033.8z M755.3-2039.7
	c-0.4-0.4-0.9-0.6-1.5-0.6c-0.6,0-1.1,0.2-1.5,0.6c-0.6,0.6-0.7,1.6-0.7,2.6c0,0.9,0.1,2,0.7,2.6c0.4,0.4,0.9,0.6,1.5,0.6
	c0.6,0,1.1-0.2,1.5-0.6c0.6-0.6,0.7-1.6,0.7-2.6S755.9-2039.1,755.3-2039.7z"/>
<path fill="#FFFFFF" d="M764.5-2039.7c-0.5-0.5-0.8-0.6-1.4-0.6c-1.2,0-2,1-2,2.2v5.1h-1.2v-8.4h1.2v1c0.5-0.7,1.4-1.1,2.3-1.1
	c0.8,0,1.4,0.2,2,0.8L764.5-2039.7z"/>
<path fill="#FFFFFF" d="M769.3-2032.9c-1.4,0-2.1-1-2.1-2.2v-5.1h-1.1v-0.9h1.1v-2.6h1.2v2.6h1.8v0.9h-1.8v5.1
	c0,0.8,0.4,1.2,1.1,1.2h0.6v1.1L769.3-2032.9L769.3-2032.9z"/>
<path fill="#FFFFFF" d="M777.2-2032.9v-0.8c-0.7,0.7-1.3,0.9-2.4,0.9c-1.2,0-1.8-0.2-2.4-0.8c-0.4-0.4-0.6-1-0.6-1.7
	c0-1.5,1-2.4,2.9-2.4h2.5v-0.8c0-1.2-0.6-1.8-2.1-1.8c-1.1,0-1.6,0.3-2.1,1l-0.8-0.8c0.7-1,1.6-1.2,3-1.2c2.2,0,3.3,1,3.3,2.8v5.7
	L777.2-2032.9L777.2-2032.9z M777.2-2036.8h-2.3c-1.3,0-1.9,0.5-1.9,1.5s0.6,1.4,1.9,1.4c0.7,0,1.3-0.1,1.9-0.6
	c0.3-0.3,0.4-0.7,0.4-1.4V-2036.8z"/>
<path fill="#FFFFFF" d="M783.5-2032.9c-1.5,0-2.1-1-2.1-2.2v-9.9h1.2v9.8c0,0.8,0.3,1.2,1.1,1.2h0.7v1.1H783.5L783.5-2032.9z"/>
<path fill="#FFFFFF" d="M626.3-1920.6l-1-2.7H620l-1,2.7h-1.4l4.5-12.1h1.1l4.4,12.1H626.3L626.3-1920.6z M622.7-1930.9l-2.3,6.4
	h4.5L622.7-1930.9z"/>
<path fill="#FFFFFF" d="M634.8-1920.6v-5.2c0-1.5-0.8-2.2-2.1-2.2c-1.3,0-2.1,0.8-2.1,2.2v5.2h-1.2v-8.4h1.2v0.9
	c0.6-0.7,1.4-1,2.3-1s1.6,0.3,2.1,0.8c0.6,0.6,0.9,1.4,0.9,2.3v5.4L634.8-1920.6L634.8-1920.6z"/>
<path fill="#FFFFFF" d="M641.1-1918.6c-0.2,0.5-0.4,0.8-0.6,1c-0.4,0.4-1,0.6-1.6,0.6h-0.5v-1.1h0.4c0.8,0,1.1-0.3,1.4-1l0.6-1.6
	l-3-8.2h1.3l2.3,6.7l2.3-6.7h1.3L641.1-1918.6L641.1-1918.6z"/>
<path fill="#FFFFFF" d="M652.2-1921.2c-0.4,0.4-1.2,0.7-2,0.7c-0.9,0-1.7-0.2-2.4-1.1v4.7h-1.2v-12.1h1.2v1c0.7-0.9,1.4-1.1,2.4-1.1
	c0.8,0,1.6,0.3,2,0.7c0.9,0.8,1,2.2,1,3.6C653.2-1923.4,653.1-1922.1,652.2-1921.2L652.2-1921.2z M649.9-1928
	c-1.8,0-2.1,1.6-2.1,3.2c0,1.6,0.3,3.2,2.1,3.2s2.1-1.6,2.1-3.2C652-1926.4,651.7-1928,649.9-1928z"/>
<path fill="#FFFFFF" d="M661.2-1921.5c-0.6,0.6-1.4,1-2.4,1s-1.8-0.4-2.4-1c-0.9-0.9-1-2-1-3.3c0-1.3,0.2-2.5,1-3.3
	c0.6-0.6,1.4-1,2.4-1s1.8,0.4,2.4,1c0.8,0.9,1,2,1,3.3C662.2-1923.5,662.1-1922.3,661.2-1921.5z M660.4-1927.4
	c-0.4-0.4-0.9-0.6-1.5-0.6s-1.1,0.2-1.5,0.6c-0.6,0.6-0.7,1.6-0.7,2.6c0,0.9,0.1,2,0.7,2.6c0.4,0.4,0.9,0.6,1.5,0.6s1.1-0.2,1.5-0.6
	c0.6-0.6,0.7-1.6,0.7-2.6C661-1925.7,661-1926.8,660.4-1927.4z"/>
<path fill="#FFFFFF" d="M664.8-1931.3v-1.4h1.4v1.4H664.8z M664.9-1920.6v-8.4h1.2v8.4H664.9z"/>
<path fill="#FFFFFF" d="M674.5-1920.6v-5.2c0-1.5-0.8-2.2-2.1-2.2c-1.3,0-2.1,0.8-2.1,2.2v5.2h-1.2v-8.4h1.2v0.9
	c0.6-0.7,1.4-1,2.3-1s1.6,0.3,2.1,0.8c0.6,0.6,0.9,1.4,0.9,2.3v5.4L674.5-1920.6L674.5-1920.6z"/>
<path fill="#FFFFFF" d="M681.1-1920.6c-1.4,0-2.1-1-2.1-2.2v-5.1h-1.1v-0.9h1.1v-2.7h1.2v2.6h1.8v0.9h-1.8v5.1
	c0,0.8,0.4,1.2,1.1,1.2h0.6v1.1H681.1L681.1-1920.6z"/>
<path fill="#FFFFFF" d="M695.8-1920.6l-2.8-5.4h-2.9v5.4h-1.3v-12.1h4.6c2.1,0,3.6,1.3,3.6,3.4c0,1.8-1.1,2.9-2.6,3.2l2.9,5.5H695.8
	L695.8-1920.6z M693.3-1931.6h-3.2v4.4h3.2c1.4,0,2.4-0.7,2.4-2.2C695.8-1930.8,694.8-1931.6,693.3-1931.6L693.3-1931.6z"/>
<path fill="#FFFFFF" d="M705-1920.6v-0.9c-0.6,0.7-1.4,1-2.4,1c-0.9,0-1.6-0.3-2.2-0.8c-0.6-0.6-0.9-1.4-0.9-2.3v-5.3h1.2v5.2
	c0,1.5,0.8,2.2,2,2.2s2.1-0.8,2.1-2.2v-5.2h1.2v8.4L705-1920.6L705-1920.6z"/>
<path fill="#FFFFFF" d="M714.7-1920.6v-5.2c0-1.5-0.8-2.2-2.1-2.2c-1.3,0-2.1,0.8-2.1,2.2v5.2h-1.2v-8.4h1.2v0.9
	c0.6-0.7,1.4-1,2.3-1s1.6,0.3,2.1,0.8c0.6,0.6,0.9,1.4,0.9,2.3v5.4L714.7-1920.6L714.7-1920.6z"/>
<path fill="#FFFFFF" d="M721.2-1920.6c-1.4,0-2.1-1-2.1-2.2v-5.1H718v-0.9h1.1v-2.7h1.2v2.6h1.8v0.9h-1.8v5.1c0,0.8,0.4,1.2,1.1,1.2
	h0.6v1.1H721.2L721.2-1920.6z"/>
<path fill="#FFFFFF" d="M724.4-1931.3v-1.4h1.4v1.4H724.4z M724.5-1920.6v-8.4h1.2v8.4H724.5z"/>
<path fill="#FFFFFF" d="M739.5-1920.6v-5.2c0-1.5-0.8-2.2-2.1-2.2c-1.2,0-2.1,0.8-2.1,2.1v5.3h-1.2v-5.2c0-1.5-0.8-2.2-2.1-2.2
	c-1.3,0-2.1,0.8-2.1,2.2v5.2h-1.2v-8.4h1.2v0.9c0.6-0.7,1.4-1,2.4-1c1.2,0,2.1,0.5,2.6,1.4c0.6-0.9,1.6-1.4,2.8-1.4
	c0.9,0,1.6,0.3,2.2,0.8c0.6,0.6,0.9,1.4,0.9,2.3v5.4L739.5-1920.6L739.5-1920.6z"/>
<path fill="#FFFFFF" d="M744.5-1924.5c0,1.8,0.9,2.9,2.5,2.9c1,0,1.5-0.3,2.2-1l0.8,0.7c-0.8,0.9-1.6,1.3-3.1,1.3
	c-2.2,0-3.7-1.3-3.7-4.3c0-2.7,1.3-4.3,3.4-4.3c2.2,0,3.4,1.6,3.4,4v0.6L744.5-1924.5L744.5-1924.5z M748.7-1926.8
	c-0.3-0.8-1.1-1.3-2-1.3s-1.6,0.5-2,1.3c-0.2,0.5-0.2,0.7-0.3,1.4h4.4C748.9-1926.1,748.9-1926.3,748.7-1926.8z"/>
<path fill="#FFFFFF" d="M757.2-1920.6v-12.1h7.5v1.2h-6.2v4.3h5.3v1.2h-5.3v4.4h6.2v1.2h-7.5V-1920.6z"/>
<path fill="#FFFFFF" d="M772.5-1920.6v-5.2c0-1.5-0.8-2.2-2.1-2.2c-1.3,0-2.1,0.8-2.1,2.2v5.2h-1.2v-8.4h1.2v0.9
	c0.6-0.7,1.4-1,2.3-1s1.6,0.3,2.1,0.8c0.6,0.6,0.9,1.4,0.9,2.3v5.4L772.5-1920.6L772.5-1920.6z"/>
<path fill="#FFFFFF" d="M779.4-1916.8c-1.3,0-2-0.3-2.8-1.1l0.8-0.8c0.6,0.5,1,0.8,2,0.8c1.6,0,2.3-1.1,2.3-2.6v-1.3
	c-0.7,0.9-1.4,1.1-2.3,1.1c-0.8,0-1.6-0.3-2-0.7c-0.8-0.8-1-2.1-1-3.5s0.2-2.7,1-3.5c0.4-0.4,1.2-0.7,2-0.7c0.9,0,1.7,0.2,2.3,1.1
	v-1h1.2v8.6C782.9-1918.3,781.6-1916.8,779.4-1916.8z M779.6-1928c-1.8,0-2.1,1.6-2.1,3.1c0,1.6,0.3,3.1,2.1,3.1
	c1.8,0,2.1-1.6,2.1-3.1S781.4-1928,779.6-1928z"/>
<path fill="#FFFFFF" d="M785.9-1931.3v-1.4h1.4v1.4H785.9z M786-1920.6v-8.4h1.2v8.4H786z"/>
<path fill="#FFFFFF" d="M795.6-1920.6v-5.2c0-1.5-0.8-2.2-2.1-2.2s-2.1,0.8-2.1,2.2v5.2h-1.2v-8.4h1.2v0.9c0.6-0.7,1.4-1,2.3-1
	c0.9,0,1.6,0.3,2.1,0.8c0.6,0.6,0.9,1.4,0.9,2.3v5.4L795.6-1920.6L795.6-1920.6z"/>
<path fill="#FFFFFF" d="M800.6-1924.5c0,1.8,0.9,2.9,2.5,2.9c1,0,1.5-0.3,2.2-1l0.8,0.7c-0.8,0.9-1.6,1.3-3.1,1.3
	c-2.2,0-3.7-1.3-3.7-4.3c0-2.7,1.3-4.3,3.4-4.3c2.2,0,3.4,1.6,3.4,4v0.6L800.6-1924.5L800.6-1924.5z M804.8-1926.8
	c-0.3-0.8-1.1-1.3-2-1.3c-0.9,0-1.6,0.5-2,1.3c-0.2,0.5-0.2,0.7-0.3,1.4h4.4C805-1926.1,804.9-1926.3,804.8-1926.8z"/>
<rect x="297" y="-1874" fill="#1D1D1D" width="830" height="39.5"/>
<path fill="#17A0DB" d="M686.3-1847.1c-1.2,0-2.3-0.4-3.1-1.3c-1.1-1.1-1.1-2.3-1.1-4.9c0-2.6,0-3.8,1.1-4.9
	c0.8-0.8,1.9-1.3,3.1-1.3c2.2,0,3.8,1.3,4.2,3.6h-1.3c-0.3-1.5-1.4-2.4-2.9-2.4c-0.8,0-1.6,0.3-2.1,0.8c-0.8,0.8-0.9,1.6-0.9,4.1
	s0.1,3.4,0.9,4.1c0.5,0.5,1.3,0.9,2.1,0.9c1.5,0,2.6-1,2.9-2.4h1.3C690.1-1848.5,688.5-1847.1,686.3-1847.1L686.3-1847.1z"/>
<path fill="#17A0DB" d="M698.5-1848.1c-0.6,0.6-1.4,1-2.4,1s-1.8-0.4-2.4-1c-0.9-0.9-1-2-1-3.3c0-1.3,0.2-2.5,1-3.3
	c0.6-0.6,1.4-1,2.4-1s1.8,0.4,2.4,1c0.9,0.9,1,2,1,3.3C699.5-1850.1,699.4-1848.9,698.5-1848.1z M697.6-1854
	c-0.4-0.4-0.9-0.6-1.5-0.6c-0.6,0-1.1,0.2-1.5,0.6c-0.6,0.6-0.7,1.6-0.7,2.6c0,0.9,0.1,2,0.7,2.6c0.4,0.4,0.9,0.6,1.5,0.6
	c0.6,0,1.1-0.2,1.5-0.6c0.6-0.6,0.7-1.6,0.7-2.6C698.3-1852.3,698.3-1853.4,697.6-1854z"/>
<path fill="#17A0DB" d="M707.5-1847.2v-5.2c0-1.5-0.8-2.2-2.1-2.2c-1.3,0-2.1,0.8-2.1,2.2v5.2h-1.2v-8.4h1.2v0.9
	c0.6-0.7,1.4-1,2.3-1s1.6,0.3,2.1,0.8c0.6,0.6,0.9,1.4,0.9,2.3v5.4L707.5-1847.2L707.5-1847.2z"/>
<path fill="#17A0DB" d="M717.1-1847.2v-5.2c0-1.5-0.8-2.2-2.1-2.2s-2.1,0.8-2.1,2.2v5.2h-1.2v-8.4h1.2v0.9c0.6-0.7,1.4-1,2.3-1
	c0.9,0,1.6,0.3,2.1,0.8c0.6,0.6,0.9,1.4,0.9,2.3v5.4L717.1-1847.2L717.1-1847.2z"/>
<path fill="#17A0DB" d="M722-1851.1c0,1.8,0.9,2.9,2.5,2.9c1,0,1.5-0.3,2.2-1l0.8,0.7c-0.8,0.9-1.6,1.3-3.1,1.3
	c-2.2,0-3.7-1.3-3.7-4.3c0-2.7,1.3-4.3,3.4-4.3c2.2,0,3.4,1.6,3.4,4v0.6L722-1851.1L722-1851.1z M726.2-1853.4
	c-0.3-0.8-1.1-1.3-2-1.3s-1.6,0.5-2,1.3c-0.2,0.5-0.2,0.7-0.3,1.4h4.4C726.4-1852.7,726.4-1852.9,726.2-1853.4z"/>
<path fill="#17A0DB" d="M733.5-1847.1c-2.1,0-3.7-1.4-3.7-4.3s1.6-4.3,3.7-4.3c1.2,0,1.9,0.3,2.8,1.2l-0.8,0.8
	c-0.6-0.7-1.1-0.9-1.9-0.9c-0.8,0-1.5,0.3-1.9,1c-0.4,0.5-0.5,1.2-0.5,2.2s0.2,1.7,0.5,2.2c0.4,0.6,1.1,1,1.9,1c0.8,0,1.3-0.3,1.9-1
	l0.8,0.8C735.4-1847.4,734.7-1847.1,733.5-1847.1L733.5-1847.1z"/>
<path fill="#17A0DB" d="M740.9-1847.2c-1.4,0-2.1-1-2.1-2.2v-5.1h-1.1v-1h1.1v-2.6h1.2v2.6h1.8v0.9H740v5.1c0,0.8,0.4,1.2,1.1,1.2
	h0.6v1.1H740.9L740.9-1847.2z"/>
<path fill="#FFFFFF" d="M643.3-1805.6l-1-2.7H637l-1,2.7h-1.4l4.5-12.1h1.1l4.4,12.1H643.3L643.3-1805.6z M639.8-1815.9l-2.3,6.4
	h4.5L639.8-1815.9z"/>
<path fill="#FFFFFF" d="M651.8-1805.6v-5.2c0-1.5-0.8-2.2-2.1-2.2c-1.3,0-2.1,0.8-2.1,2.2v5.2h-1.2v-8.4h1.2v0.9
	c0.6-0.7,1.4-1,2.3-1s1.6,0.3,2.1,0.8c0.6,0.6,0.9,1.4,0.9,2.3v5.4L651.8-1805.6L651.8-1805.6z"/>
<path fill="#FFFFFF" d="M658.1-1803.6c-0.2,0.5-0.4,0.8-0.6,1c-0.4,0.4-1,0.6-1.6,0.6h-0.5v-1.1h0.4c0.9,0,1.1-0.3,1.4-1l0.6-1.6
	l-3-8.2h1.3l2.3,6.7l2.3-6.7h1.3L658.1-1803.6L658.1-1803.6z"/>
<path fill="#FFFFFF" d="M669.2-1806.2c-0.4,0.4-1.2,0.7-2,0.7c-0.9,0-1.7-0.2-2.4-1.1v4.7h-1.2v-12.1h1.2v1c0.7-0.9,1.4-1.1,2.4-1.1
	c0.8,0,1.6,0.3,2,0.7c0.9,0.8,1,2.2,1,3.6C670.2-1808.4,670.1-1807.1,669.2-1806.2L669.2-1806.2z M666.9-1813
	c-1.8,0-2.1,1.6-2.1,3.2c0,1.6,0.3,3.2,2.1,3.2s2.1-1.6,2.1-3.2C669-1811.4,668.8-1813,666.9-1813z"/>
<path fill="#FFFFFF" d="M678.2-1806.5c-0.6,0.6-1.4,1-2.4,1s-1.8-0.4-2.4-1c-0.9-0.9-1-2-1-3.3c0-1.3,0.2-2.5,1-3.3
	c0.6-0.6,1.4-1,2.4-1s1.8,0.4,2.4,1c0.9,0.9,1,2,1,3.3C679.2-1808.5,679.1-1807.3,678.2-1806.5z M677.4-1812.4
	c-0.4-0.4-0.9-0.6-1.5-0.6s-1.1,0.2-1.5,0.6c-0.6,0.6-0.7,1.6-0.7,2.6c0,0.9,0.1,2,0.7,2.6c0.4,0.4,0.9,0.6,1.5,0.6s1.1-0.2,1.5-0.6
	c0.6-0.6,0.7-1.6,0.7-2.6C678-1810.7,678-1811.8,677.4-1812.4z"/>
<path fill="#FFFFFF" d="M681.8-1816.3v-1.4h1.4v1.4H681.8z M681.9-1805.6v-8.4h1.2v8.4H681.9z"/>
<path fill="#FFFFFF" d="M691.5-1805.6v-5.2c0-1.5-0.8-2.2-2.1-2.2c-1.3,0-2.1,0.8-2.1,2.2v5.2h-1.2v-8.4h1.2v0.9
	c0.6-0.7,1.4-1,2.3-1s1.6,0.3,2.1,0.8c0.6,0.6,0.9,1.4,0.9,2.3v5.4L691.5-1805.6L691.5-1805.6z"/>
<path fill="#FFFFFF" d="M698.1-1805.6c-1.4,0-2.1-1-2.1-2.2v-5.1h-1.1v-0.9h1.1v-2.7h1.2v2.6h1.8v0.9h-1.8v5.1
	c0,0.8,0.4,1.2,1.1,1.2h0.6v1.1H698.1L698.1-1805.6z"/>
<path fill="#FFFFFF" d="M709.6-1805.5c-1.2,0-2.3-0.4-3.1-1.3c-1.1-1.1-1.1-2.3-1.1-4.9c0-2.6,0-3.8,1.1-4.9
	c0.8-0.8,1.9-1.3,3.1-1.3c2.2,0,3.8,1.3,4.2,3.6h-1.3c-0.3-1.5-1.4-2.4-2.9-2.4c-0.8,0-1.6,0.3-2.1,0.8c-0.8,0.8-0.8,1.6-0.8,4.1
	s0.1,3.4,0.8,4.1c0.5,0.5,1.3,0.9,2.1,0.9c1.5,0,2.6-1,2.9-2.4h1.3C713.4-1806.8,711.8-1805.5,709.6-1805.5L709.6-1805.5z"/>
<path fill="#FFFFFF" d="M721.8-1806.5c-0.6,0.6-1.4,1-2.4,1s-1.8-0.4-2.4-1c-0.8-0.9-1-2-1-3.3c0-1.3,0.2-2.5,1-3.3
	c0.6-0.6,1.4-1,2.4-1s1.8,0.4,2.4,1c0.8,0.9,1,2,1,3.3C722.8-1808.5,722.7-1807.3,721.8-1806.5z M720.9-1812.4
	c-0.4-0.4-0.9-0.6-1.5-0.6c-0.6,0-1.1,0.2-1.5,0.6c-0.6,0.6-0.7,1.6-0.7,2.6c0,0.9,0.1,2,0.7,2.6c0.4,0.4,0.9,0.6,1.5,0.6
	c0.6,0,1.1-0.2,1.5-0.6c0.6-0.6,0.7-1.6,0.7-2.6C721.6-1810.7,721.6-1811.8,720.9-1812.4z"/>
<path fill="#FFFFFF" d="M730.8-1805.6v-5.2c0-1.5-0.8-2.2-2.1-2.2c-1.3,0-2.1,0.8-2.1,2.2v5.2h-1.2v-8.4h1.2v0.9
	c0.6-0.7,1.4-1,2.3-1s1.6,0.3,2.1,0.8c0.6,0.6,0.9,1.4,0.9,2.3v5.4L730.8-1805.6L730.8-1805.6z"/>
<path fill="#FFFFFF" d="M740.4-1805.6v-5.2c0-1.5-0.8-2.2-2.1-2.2s-2.1,0.8-2.1,2.2v5.2H735v-8.4h1.2v0.9c0.6-0.7,1.4-1,2.3-1
	c0.9,0,1.6,0.3,2.1,0.8c0.6,0.6,0.9,1.4,0.9,2.3v5.4L740.4-1805.6L740.4-1805.6z"/>
<path fill="#FFFFFF" d="M745.3-1809.5c0,1.8,0.9,2.9,2.5,2.9c1,0,1.5-0.3,2.2-1l0.8,0.7c-0.8,0.9-1.6,1.3-3.1,1.3
	c-2.2,0-3.7-1.3-3.7-4.3c0-2.7,1.3-4.3,3.4-4.3c2.2,0,3.4,1.6,3.4,4v0.6L745.3-1809.5L745.3-1809.5z M749.5-1811.8
	c-0.3-0.8-1.1-1.3-2-1.3s-1.6,0.5-2,1.3c-0.2,0.5-0.2,0.7-0.3,1.4h4.4C749.7-1811.1,749.7-1811.3,749.5-1811.8z"/>
<path fill="#FFFFFF" d="M756.8-1805.5c-2.1,0-3.7-1.4-3.7-4.3c0-2.9,1.6-4.3,3.7-4.3c1.2,0,1.9,0.3,2.8,1.2l-0.8,0.8
	c-0.6-0.7-1.1-0.9-1.9-0.9c-0.8,0-1.5,0.3-1.9,1c-0.4,0.5-0.5,1.2-0.5,2.2s0.2,1.7,0.5,2.2c0.4,0.6,1.1,1,1.9,1c0.8,0,1.3-0.3,1.9-1
	l0.8,0.8C758.7-1805.8,758-1805.5,756.8-1805.5L756.8-1805.5z"/>
<path fill="#FFFFFF" d="M764.2-1805.6c-1.4,0-2.1-1-2.1-2.2v-5.1H761v-0.9h1.1v-2.7h1.2v2.6h1.8v0.9h-1.8v5.1c0,0.8,0.4,1.2,1.1,1.2
	h0.6v1.1H764.2L764.2-1805.6z"/>
<path fill="#FFFFFF" d="M772.8-1806.5c-0.6,0.6-1.4,1-2.4,1s-1.8-0.4-2.4-1c-0.8-0.9-1-2-1-3.3c0-1.3,0.2-2.5,1-3.3
	c0.6-0.6,1.4-1,2.4-1s1.8,0.4,2.4,1c0.8,0.9,1,2,1,3.3C773.8-1808.5,773.6-1807.3,772.8-1806.5z M771.9-1812.4
	c-0.4-0.4-0.9-0.6-1.5-0.6c-0.6,0-1.1,0.2-1.5,0.6c-0.6,0.6-0.7,1.6-0.7,2.6c0,0.9,0.1,2,0.7,2.6c0.4,0.4,0.9,0.6,1.5,0.6
	c0.6,0,1.1-0.2,1.5-0.6c0.6-0.6,0.7-1.6,0.7-2.6C772.6-1810.7,772.5-1811.8,771.9-1812.4z"/>
<path fill="#FFFFFF" d="M781.1-1812.4c-0.5-0.5-0.8-0.6-1.4-0.6c-1.2,0-2,1-2,2.2v5.1h-1.2v-8.4h1.2v1c0.5-0.7,1.4-1.1,2.3-1.1
	c0.8,0,1.4,0.2,2,0.8L781.1-1812.4z"/>
<path fill="#FFFFFF" d="M786-1805.5c-1.4,0-2.5-0.3-3.4-1.2l0.8-0.8c0.7,0.7,1.6,1,2.6,1c1.4,0,2.2-0.5,2.2-1.5
	c0-0.7-0.4-1.1-1.4-1.2l-1.4-0.1c-1.6-0.1-2.5-0.9-2.5-2.2c0-1.5,1.3-2.4,3.1-2.4c1.2,0,2.3,0.3,3,0.9l-0.8,0.8
	c-0.6-0.5-1.4-0.7-2.2-0.7c-1.2,0-1.9,0.5-1.9,1.4c0,0.7,0.4,1.1,1.5,1.2l1.3,0.1c1.5,0.1,2.5,0.7,2.5,2.3
	C789.4-1806.4,788.1-1805.5,786-1805.5L786-1805.5z"/>
<path fill="#FFFFFF" d="M335.1-2094.3l-1-2.7h-5.3l-1,2.7h-1.4l4.5-12.1h1.1l4.4,12.1C336.4-2094.3,335.1-2094.3,335.1-2094.3z
	 M331.6-2104.6l-2.3,6.4h4.5L331.6-2104.6z"/>
<path fill="#FFFFFF" d="M343.6-2094.3v-5.2c0-1.5-0.8-2.2-2.1-2.2s-2.1,0.8-2.1,2.2v5.2h-1.2v-8.4h1.2v0.9c0.6-0.7,1.4-1,2.3-1
	c0.9,0,1.6,0.3,2.1,0.8c0.6,0.6,0.9,1.4,0.9,2.3v5.4C344.7-2094.3,343.6-2094.3,343.6-2094.3z"/>
<path fill="#FFFFFF" d="M349.9-2092.3c-0.2,0.5-0.4,0.8-0.6,1c-0.4,0.4-1,0.6-1.6,0.6h-0.5v-1.1h0.4c0.8,0,1.1-0.3,1.4-1l0.6-1.6
	l-3-8.2h1.3l2.3,6.7l2.3-6.7h1.3L349.9-2092.3z"/>
<path fill="#FFFFFF" d="M361-2094.9c-0.4,0.4-1.2,0.7-2,0.7c-0.9,0-1.7-0.2-2.4-1.1v4.7h-1.2v-12.1h1.2v1c0.7-0.9,1.4-1.1,2.4-1.1
	c0.8,0,1.6,0.3,2,0.7c0.9,0.9,1,2.2,1,3.6C362.1-2097.2,361.9-2095.8,361-2094.9L361-2094.9z M358.7-2101.7c-1.8,0-2.1,1.6-2.1,3.2
	s0.3,3.2,2.1,3.2c1.8,0,2.1-1.6,2.1-3.2S360.6-2101.7,358.7-2101.7z"/>
<path fill="#FFFFFF" d="M370-2095.2c-0.6,0.6-1.4,1-2.4,1s-1.8-0.4-2.4-1c-0.9-0.9-1-2-1-3.3s0.2-2.5,1-3.3c0.6-0.6,1.4-1,2.4-1
	s1.8,0.4,2.4,1c0.8,0.9,1,2,1,3.3S370.9-2096,370-2095.2z M369.2-2101.1c-0.4-0.4-0.9-0.6-1.5-0.6c-0.6,0-1.1,0.2-1.5,0.6
	c-0.6,0.6-0.7,1.6-0.7,2.6s0.1,2,0.7,2.6c0.4,0.4,0.9,0.6,1.5,0.6c0.6,0,1.1-0.2,1.5-0.6c0.6-0.6,0.7-1.6,0.7-2.6
	S369.8-2100.5,369.2-2101.1z"/>
<path fill="#FFFFFF" d="M373.6-2105.1v-1.4h1.4v1.4H373.6z M373.7-2094.3v-8.4h1.2v8.4H373.7z"/>
<path fill="#FFFFFF" d="M383.3-2094.3v-5.2c0-1.5-0.8-2.2-2.1-2.2s-2.1,0.8-2.1,2.2v5.2H378v-8.4h1.2v0.9c0.6-0.7,1.4-1,2.3-1
	c0.9,0,1.6,0.3,2.1,0.8c0.6,0.6,0.9,1.4,0.9,2.3v5.4C384.5-2094.3,383.3-2094.3,383.3-2094.3z"/>
<path fill="#FFFFFF" d="M389.9-2094.3c-1.4,0-2.1-1-2.1-2.2v-5.1h-1.1v-0.9h1.1v-2.6h1.2v2.6h1.8v0.9H389v5.1c0,0.8,0.4,1.2,1.1,1.2
	h0.6v1.1h-0.8V-2094.3z"/>
<path fill="#FFFFFF" d="M340-2073.8c-1.8,0-3-0.5-4.1-1.6l0.9-0.9c1,1,1.9,1.3,3.3,1.3c1.8,0,2.9-0.8,2.9-2.2c0-0.6-0.2-1.2-0.6-1.5
	s-0.7-0.4-1.6-0.6l-1.4-0.2c-1-0.2-1.7-0.5-2.2-0.9c-0.6-0.5-0.9-1.3-0.9-2.3c0-2.1,1.5-3.4,3.9-3.4c1.5,0,2.6,0.4,3.6,1.3l-0.8,0.8
	c-0.7-0.7-1.5-1-2.8-1c-1.6,0-2.5,0.9-2.5,2.2c0,0.6,0.2,1.1,0.5,1.4c0.4,0.3,1,0.6,1.6,0.7l1.3,0.2c1.1,0.2,1.7,0.4,2.2,0.8
	c0.7,0.6,1,1.4,1,2.4C344.2-2075.1,342.5-2073.8,340-2073.8z"/>
<path fill="#FFFFFF" d="M349-2073.9c-1.4,0-2.1-1-2.1-2.2v-5.1h-1.1v-0.9h1.1v-2.6h1.2v2.6h1.8v0.9h-1.8v5.1c0,0.8,0.4,1.2,1.1,1.2
	h0.6v1.1L349-2073.9L349-2073.9z"/>
<path fill="#FFFFFF" d="M357.6-2073.9v-0.9c-0.6,0.7-1.4,1-2.4,1c-0.9,0-1.6-0.3-2.2-0.8c-0.6-0.6-0.9-1.4-0.9-2.3v-5.3h1.2v5.2
	c0,1.5,0.8,2.2,2,2.2c1.2,0,2.1-0.8,2.1-2.2v-5.2h1.2v8.4L357.6-2073.9L357.6-2073.9z"/>
<path fill="#FFFFFF" d="M366.8-2073.9v-1c-0.7,0.9-1.5,1.1-2.4,1.1c-0.8,0-1.6-0.3-2-0.7c-0.9-0.8-1-2.2-1-3.6c0-1.3,0.2-2.7,1-3.6
	c0.4-0.4,1.2-0.7,2-0.7c0.9,0,1.7,0.2,2.4,1.1v-4.7h1.2v12.1H366.8L366.8-2073.9z M364.7-2081.3c-1.8,0-2.1,1.6-2.1,3.2
	c0,1.6,0.3,3.2,2.1,3.2s2.1-1.6,2.1-3.2C366.8-2079.7,366.5-2081.3,364.7-2081.3z"/>
<path fill="#FFFFFF" d="M371-2084.7v-1.4h1.4v1.4H371z M371.1-2073.9v-8.4h1.2v8.4H371.1z"/>
<path fill="#FFFFFF" d="M380.8-2074.8c-0.6,0.6-1.4,1-2.4,1s-1.8-0.4-2.4-1c-0.9-0.9-1-2-1-3.3c0-1.3,0.2-2.5,1-3.3
	c0.6-0.6,1.4-1,2.4-1s1.8,0.4,2.4,1c0.9,0.9,1,2,1,3.3C381.8-2076.8,381.6-2075.6,380.8-2074.8z M379.9-2080.7
	c-0.4-0.4-0.9-0.6-1.5-0.6s-1.1,0.2-1.5,0.6c-0.6,0.6-0.7,1.6-0.7,2.6c0,0.9,0.1,2,0.7,2.6c0.4,0.4,0.9,0.6,1.5,0.6s1.1-0.2,1.5-0.6
	c0.6-0.6,0.7-1.6,0.7-2.6C380.6-2079,380.5-2080.1,379.9-2080.7z"/>
<path fill="#FFFFFF" d="M478.9-2094.3l-1-2.7h-5.3l-1,2.7h-1.4l4.5-12.1h1.1l4.4,12.1H478.9z M475.3-2104.6l-2.3,6.4h4.5
	L475.3-2104.6z"/>
<path fill="#FFFFFF" d="M486.7-2099.3h-3.2v5h-1.3v-12.1h4.5c2.2,0,3.7,1.4,3.7,3.6S488.9-2099.3,486.7-2099.3z M486.6-2105.3h-3.1
	v4.8h3.1c1.5,0,2.6-0.8,2.6-2.4C489.1-2104.5,488.1-2105.3,486.6-2105.3L486.6-2105.3z"/>
<path fill="#FFFFFF" d="M492.9-2094.3v-12.1h1.3v12.1H492.9z"/>
<path fill="#FFFFFF" d="M457.9-2075c-0.7,0.7-1.8,1.1-3.1,1.1h-4.1v-12.1h4.1c1.3,0,2.3,0.4,3.1,1.1c1.3,1.3,1.2,3.1,1.2,4.8
	C459.1-2078.4,459.1-2076.3,457.9-2075L457.9-2075z M457-2084c-0.6-0.6-1.4-0.9-2.4-0.9H452v9.8h2.6c0.9,0,1.8-0.2,2.4-0.9
	c0.8-0.9,0.8-2.7,0.8-4.1C457.8-2081.6,457.8-2083.1,457-2084L457-2084z"/>
<path fill="#FFFFFF" d="M462.7-2077.8c0,1.8,0.9,2.9,2.5,2.9c1,0,1.5-0.3,2.2-1l0.8,0.7c-0.9,0.8-1.6,1.3-3.1,1.3
	c-2.2,0-3.7-1.3-3.7-4.3c0-2.7,1.3-4.3,3.4-4.3c2.2,0,3.4,1.6,3.4,4v0.6L462.7-2077.8L462.7-2077.8z M466.8-2080.1
	c-0.3-0.8-1.1-1.3-2-1.3c-0.9,0-1.6,0.5-2,1.3c-0.2,0.5-0.2,0.7-0.3,1.4h4.4C467.1-2079.4,467-2079.6,466.8-2080.1L466.8-2080.1z"/>
<path fill="#FFFFFF" d="M473.5-2073.8c-1.4,0-2.5-0.3-3.4-1.2l0.8-0.8c0.7,0.7,1.6,1,2.6,1c1.4,0,2.2-0.5,2.2-1.5
	c0-0.7-0.4-1.1-1.4-1.2l-1.4-0.1c-1.6-0.1-2.5-0.9-2.5-2.2c0-1.5,1.3-2.4,3.1-2.4c1.2,0,2.3,0.3,3,0.9l-0.8,0.8
	c-0.6-0.5-1.4-0.7-2.2-0.7c-1.2,0-1.9,0.5-1.9,1.4c0,0.7,0.4,1.1,1.5,1.2l1.3,0.1c1.5,0.1,2.5,0.7,2.5,2.3
	C476.9-2074.7,475.6-2073.8,473.5-2073.8L473.5-2073.8z"/>
<path fill="#FFFFFF" d="M479.3-2084.7v-1.4h1.4v1.4H479.3z M479.3-2073.9v-8.4h1.2v8.4H479.3z"/>
<path fill="#FFFFFF" d="M486.3-2070.1c-1.3,0-2-0.3-2.8-1.1l0.8-0.8c0.6,0.5,1,0.8,2,0.8c1.6,0,2.3-1.1,2.3-2.6v-1.3
	c-0.7,0.9-1.4,1.1-2.3,1.1c-0.8,0-1.6-0.3-2-0.7c-0.8-0.8-1-2.1-1-3.5c0-1.4,0.2-2.7,1-3.5c0.4-0.4,1.2-0.7,2-0.7
	c0.9,0,1.7,0.2,2.3,1.1v-1h1.2v8.6C489.8-2071.6,488.5-2070.1,486.3-2070.1L486.3-2070.1z M486.5-2081.3c-1.8,0-2.1,1.6-2.1,3.1
	c0,1.6,0.3,3.1,2.1,3.1s2.1-1.6,2.1-3.1S488.3-2081.3,486.5-2081.3z"/>
<path fill="#FFFFFF" d="M498.2-2073.9v-5.2c0-1.5-0.8-2.2-2.1-2.2c-1.3,0-2.1,0.8-2.1,2.2v5.2h-1.2v-8.4h1.2v0.9
	c0.6-0.7,1.4-1,2.3-1s1.6,0.3,2.1,0.8c0.6,0.6,0.9,1.4,0.9,2.3v5.4H498.2L498.2-2073.9z"/>
<path fill="#FFFFFF" d="M503.2-2077.8c0,1.8,0.9,2.9,2.5,2.9c1,0,1.5-0.3,2.2-1l0.8,0.7c-0.8,0.8-1.6,1.3-3.1,1.3
	c-2.2,0-3.7-1.3-3.7-4.3c0-2.7,1.3-4.3,3.4-4.3c2.2,0,3.4,1.6,3.4,4v0.6L503.2-2077.8L503.2-2077.8z M507.4-2080.1
	c-0.3-0.8-1.1-1.3-2-1.3s-1.6,0.5-2,1.3c-0.2,0.5-0.2,0.7-0.3,1.4h4.4C507.6-2079.4,507.5-2079.6,507.4-2080.1L507.4-2080.1z"/>
<path fill="#FFFFFF" d="M516.1-2080.7c-0.5-0.5-0.8-0.6-1.4-0.6c-1.2,0-2,1-2,2.2v5.1h-1.2v-8.4h1.2v1c0.5-0.7,1.4-1.1,2.3-1.1
	c0.8,0,1.4,0.2,2,0.8L516.1-2080.7L516.1-2080.7z"/>
<path fill="#FFFFFF" d="M936.9-2094.3l-1-2.7h-5.3l-1,2.7h-1.4l4.5-12.1h1.1l4.4,12.1H936.9z M933.3-2104.6l-2.3,6.4h4.5
	L933.3-2104.6z"/>
<path fill="#FFFFFF" d="M944.7-2099.3h-3.2v5h-1.3v-12.1h4.5c2.2,0,3.7,1.4,3.7,3.6S946.9-2099.3,944.7-2099.3z M944.6-2105.3h-3.1
	v4.8h3.1c1.5,0,2.6-0.8,2.6-2.4C947.1-2104.5,946.1-2105.3,944.6-2105.3L944.6-2105.3z"/>
<path fill="#FFFFFF" d="M950.9-2094.3v-12.1h1.3v12.1H950.9z"/>
<path fill="#FFFFFF" d="M918.5-2073.9v-9.2l-3.3,7.3h-1.1l-3.4-7.3v9.2h-1.3v-12.1h1.3l3.9,8.6l3.8-8.6h1.3v12.1H918.5z"/>
<path fill="#FFFFFF" d="M927.8-2073.9v-0.8c-0.7,0.7-1.3,0.9-2.4,0.9c-1.2,0-1.8-0.2-2.4-0.8c-0.4-0.4-0.6-1-0.6-1.7
	c0-1.5,1-2.4,2.9-2.4h2.5v-0.8c0-1.2-0.6-1.8-2.1-1.8c-1.1,0-1.6,0.3-2.1,1l-0.8-0.8c0.7-1,1.6-1.2,3-1.2c2.2,0,3.3,1,3.3,2.8v5.7
	L927.8-2073.9L927.8-2073.9z M927.8-2077.8h-2.3c-1.3,0-1.9,0.5-1.9,1.5s0.6,1.4,1.9,1.4c0.7,0,1.3-0.1,1.9-0.6
	c0.3-0.3,0.4-0.7,0.4-1.4L927.8-2077.8L927.8-2077.8z"/>
<path fill="#FFFFFF" d="M937.3-2073.9v-5.2c0-1.5-0.8-2.2-2.1-2.2s-2.1,0.8-2.1,2.2v5.2H932v-8.4h1.2v0.9c0.6-0.7,1.4-1,2.3-1
	s1.6,0.3,2.1,0.8c0.6,0.6,0.9,1.4,0.9,2.3v5.4H937.3L937.3-2073.9z"/>
<path fill="#FFFFFF" d="M946.3-2073.9v-0.8c-0.7,0.7-1.3,0.9-2.4,0.9c-1.2,0-1.8-0.2-2.4-0.8c-0.4-0.4-0.6-1-0.6-1.7
	c0-1.5,1-2.4,2.9-2.4h2.5v-0.8c0-1.2-0.6-1.8-2.1-1.8c-1.1,0-1.6,0.3-2.1,1l-0.8-0.8c0.7-1,1.6-1.2,3-1.2c2.2,0,3.3,1,3.3,2.8v5.7
	L946.3-2073.9L946.3-2073.9z M946.3-2077.8H944c-1.3,0-1.9,0.5-1.9,1.5s0.6,1.4,1.9,1.4c0.7,0,1.3-0.1,1.9-0.6
	c0.3-0.3,0.4-0.7,0.4-1.4L946.3-2077.8L946.3-2077.8z"/>
<path fill="#FFFFFF" d="M953.2-2070.1c-1.3,0-2-0.3-2.8-1.1l0.8-0.8c0.6,0.5,1,0.8,2,0.8c1.6,0,2.3-1.1,2.3-2.6v-1.3
	c-0.7,0.9-1.4,1.1-2.3,1.1c-0.8,0-1.6-0.3-2-0.7c-0.8-0.8-1-2.1-1-3.5c0-1.4,0.2-2.7,1-3.5c0.4-0.4,1.2-0.7,2-0.7
	c0.9,0,1.7,0.2,2.3,1.1v-1h1.2v8.6C956.7-2071.6,955.4-2070.1,953.2-2070.1L953.2-2070.1z M953.4-2081.3c-1.8,0-2.1,1.6-2.1,3.1
	c0,1.6,0.3,3.1,2.1,3.1s2.1-1.6,2.1-3.1C955.4-2079.7,955.2-2081.3,953.4-2081.3z"/>
<path fill="#FFFFFF" d="M960.5-2077.8c0,1.8,0.9,2.9,2.5,2.9c1,0,1.5-0.3,2.2-1l0.8,0.7c-0.9,0.8-1.6,1.3-3.1,1.3
	c-2.2,0-3.7-1.3-3.7-4.3c0-2.7,1.3-4.3,3.4-4.3c2.2,0,3.4,1.6,3.4,4v0.6L960.5-2077.8L960.5-2077.8z M964.6-2080.1
	c-0.3-0.8-1.1-1.3-2-1.3s-1.6,0.5-2,1.3c-0.2,0.5-0.2,0.7-0.3,1.4h4.4C964.9-2079.4,964.8-2079.6,964.6-2080.1L964.6-2080.1z"/>
<path fill="#FFFFFF" d="M973.4-2080.7c-0.5-0.5-0.8-0.6-1.4-0.6c-1.2,0-2,1-2,2.2v5.1h-1.2v-8.4h1.2v1c0.5-0.7,1.4-1.1,2.3-1.1
	c0.8,0,1.4,0.2,2,0.8L973.4-2080.7L973.4-2080.7z"/>
<path fill="#FFFFFF" d="M1060.9-2094.3l-1-2.7h-5.3l-1,2.7h-1.4l4.5-12.1h1.1l4.4,12.1H1060.9z M1057.3-2104.6l-2.3,6.4h4.5
	L1057.3-2104.6z"/>
<path fill="#FFFFFF" d="M1068.7-2099.3h-3.2v5h-1.3v-12.1h4.5c2.2,0,3.7,1.4,3.7,3.6S1070.9-2099.3,1068.7-2099.3z M1068.6-2105.3
	h-3.1v4.8h3.1c1.5,0,2.6-0.8,2.6-2.4C1071.1-2104.5,1070.1-2105.3,1068.6-2105.3L1068.6-2105.3z"/>
<path fill="#FFFFFF" d="M1074.9-2094.3v-12.1h1.3v12.1H1074.9z"/>
<path fill="#FFFFFF" d="M1039.9-2073.9l-1-2.7h-5.3l-1,2.7h-1.4l4.5-12.1h1.1l4.4,12.1H1039.9z M1036.3-2084.2l-2.3,6.4h4.5
	L1036.3-2084.2z"/>
<path fill="#FFFFFF" d="M1048.3-2073.9v-5.2c0-1.5-0.8-2.2-2.1-2.2c-1.3,0-2.1,0.8-2.1,2.2v5.2h-1.1v-8.4h1.2v0.9
	c0.6-0.7,1.4-1,2.3-1c0.9,0,1.6,0.3,2.1,0.8c0.6,0.6,0.9,1.4,0.9,2.3v5.4H1048.3L1048.3-2073.9z"/>
<path fill="#FFFFFF" d="M1057.3-2073.9v-0.8c-0.7,0.7-1.3,0.9-2.4,0.9c-1.2,0-1.8-0.2-2.4-0.8c-0.4-0.4-0.6-1-0.6-1.7
	c0-1.5,1-2.4,2.9-2.4h2.5v-0.8c0-1.2-0.6-1.8-2.1-1.8c-1.1,0-1.6,0.3-2.1,1l-0.8-0.8c0.7-1,1.6-1.2,3-1.2c2.2,0,3.3,1,3.3,2.8v5.7
	L1057.3-2073.9L1057.3-2073.9z M1057.3-2077.8h-2.3c-1.3,0-1.9,0.5-1.9,1.5s0.6,1.4,1.9,1.4c0.7,0,1.3-0.1,1.9-0.6
	c0.3-0.3,0.4-0.7,0.4-1.4V-2077.8L1057.3-2077.8z"/>
<path fill="#FFFFFF" d="M1063.6-2073.9c-1.5,0-2.1-1-2.1-2.2v-9.9h1.2v9.8c0,0.8,0.3,1.2,1.1,1.2h0.7v1.1H1063.6L1063.6-2073.9z"/>
<path fill="#FFFFFF" d="M1068.2-2071.9c-0.2,0.5-0.4,0.8-0.6,1c-0.4,0.4-1,0.6-1.6,0.6h-0.5v-1.1h0.4c0.9,0,1.1-0.3,1.4-1l0.6-1.6
	l-3-8.2h1.3l2.3,6.7l2.3-6.7h1.3L1068.2-2071.9z"/>
<path fill="#FFFFFF" d="M1076.1-2073.9c-1.4,0-2.1-1-2.1-2.2v-5.1h-1.1v-0.9h1.1v-2.6h1.2v2.6h1.8v0.9h-1.8v5.1
	c0,0.8,0.4,1.2,1.1,1.2h0.6v1.1L1076.1-2073.9L1076.1-2073.9z"/>
<path fill="#FFFFFF" d="M1079.3-2084.7v-1.4h1.4v1.4H1079.3z M1079.4-2073.9v-8.4h1.2v8.4H1079.4z"/>
<path fill="#FFFFFF" d="M1086.9-2073.8c-2.1,0-3.7-1.4-3.7-4.3c0-2.9,1.6-4.3,3.7-4.3c1.2,0,1.9,0.3,2.8,1.2l-0.8,0.8
	c-0.6-0.7-1.1-0.9-1.9-0.9s-1.5,0.3-1.9,1c-0.4,0.5-0.5,1.2-0.5,2.2s0.2,1.7,0.5,2.2c0.4,0.6,1.1,1,1.9,1s1.3-0.3,1.9-1l0.8,0.8
	C1088.8-2074.1,1088.1-2073.8,1086.9-2073.8z"/>
<path fill="#FFFFFF" d="M1094.7-2073.8c-1.4,0-2.5-0.3-3.4-1.2l0.8-0.8c0.7,0.7,1.6,1,2.6,1c1.4,0,2.2-0.5,2.2-1.5
	c0-0.7-0.4-1.1-1.4-1.2l-1.4-0.1c-1.6-0.1-2.5-0.9-2.5-2.2c0-1.5,1.3-2.4,3.1-2.4c1.2,0,2.3,0.3,3,0.9l-0.8,0.8
	c-0.6-0.5-1.4-0.7-2.2-0.7c-1.2,0-1.9,0.5-1.9,1.4c0,0.7,0.4,1.1,1.5,1.2l1.3,0.1c1.5,0.1,2.5,0.7,2.5,2.3
	C1098.1-2074.7,1096.7-2073.8,1094.7-2073.8L1094.7-2073.8z"/>
<path fill="#17A0DB" d="M902.3-2206.4v-9.2l-3.3,7.3h-1.1l-3.4-7.3v9.2h-1.3v-12.1h1.3l3.9,8.6l3.8-8.6h1.3v12.1H902.3z"/>
<path fill="#17A0DB" d="M911.6-2206.4v-0.8c-0.7,0.7-1.3,0.9-2.4,0.9c-1.2,0-1.8-0.2-2.4-0.8c-0.4-0.4-0.6-1-0.6-1.7
	c0-1.5,1-2.4,2.9-2.4h2.5v-0.8c0-1.2-0.6-1.8-2.1-1.8c-1.1,0-1.6,0.3-2.1,1l-0.8-0.8c0.7-1,1.6-1.2,3-1.2c2.2,0,3.3,1,3.3,2.8v5.7
	L911.6-2206.4L911.6-2206.4z M911.6-2210.3h-2.3c-1.3,0-1.9,0.5-1.9,1.5s0.6,1.4,1.9,1.4c0.7,0,1.3-0.1,1.9-0.6
	c0.3-0.3,0.4-0.7,0.4-1.4L911.6-2210.3L911.6-2210.3z"/>
<path fill="#17A0DB" d="M921.2-2206.4v-5.1c0-1.5-0.8-2.2-2.1-2.2s-2.1,0.7-2.1,2.2v5.2h-1.2v-8.4h1.2v0.9c0.6-0.7,1.4-1,2.3-1
	s1.6,0.3,2.1,0.8c0.6,0.6,0.9,1.4,0.9,2.3v5.4L921.2-2206.4L921.2-2206.4z"/>
<path fill="#17A0DB" d="M930.1-2206.4v-0.8c-0.7,0.7-1.3,0.9-2.4,0.9c-1.2,0-1.8-0.2-2.4-0.8c-0.4-0.4-0.6-1-0.6-1.7
	c0-1.5,1-2.4,2.9-2.4h2.5v-0.8c0-1.2-0.6-1.8-2.1-1.8c-1.1,0-1.6,0.3-2.1,1l-0.8-0.8c0.7-1,1.6-1.2,3-1.2c2.2,0,3.3,1,3.3,2.8v5.7
	L930.1-2206.4L930.1-2206.4z M930.1-2210.3h-2.3c-1.3,0-1.9,0.5-1.9,1.5s0.6,1.4,1.9,1.4c0.7,0,1.3-0.1,1.9-0.6
	c0.3-0.3,0.4-0.7,0.4-1.4L930.1-2210.3L930.1-2210.3z"/>
<path fill="#17A0DB" d="M937-2202.6c-1.3,0-2-0.3-2.8-1.1l0.8-0.8c0.6,0.5,1,0.8,2,0.8c1.6,0,2.3-1.1,2.3-2.6v-1.2
	c-0.7,0.9-1.4,1.1-2.3,1.1c-0.8,0-1.6-0.3-2-0.7c-0.8-0.8-1-2.1-1-3.5c0-1.4,0.2-2.7,1-3.5c0.4-0.4,1.2-0.7,2-0.7
	c0.9,0,1.7,0.2,2.3,1.1v-1h1.2v8.6C940.5-2204.1,939.2-2202.6,937-2202.6z M937.2-2213.8c-1.8,0-2.1,1.6-2.1,3.1s0.3,3.1,2.1,3.1
	s2.1-1.6,2.1-3.1S939-2213.8,937.2-2213.8z"/>
<path fill="#17A0DB" d="M944.3-2210.3c0,1.8,0.9,2.9,2.5,2.9c1,0,1.5-0.3,2.2-1l0.8,0.7c-0.9,0.9-1.6,1.3-3.1,1.3
	c-2.2,0-3.7-1.3-3.7-4.3c0-2.7,1.3-4.3,3.4-4.3c2.2,0,3.4,1.6,3.4,4v0.6L944.3-2210.3L944.3-2210.3z M948.5-2212.6
	c-0.3-0.8-1.1-1.3-2-1.3s-1.6,0.5-2,1.3c-0.2,0.5-0.2,0.7-0.3,1.4h4.4C948.7-2211.9,948.7-2212.1,948.5-2212.6L948.5-2212.6z"/>
</svg>
